<svg xmlns="http://www.w3.org/2000/svg" width="32" height="28" fill="none" viewBox="0 0 32 28"><path fill="#fff" d="M2.50234 15.9253H25.3752L18.3745 24.3339C18.0471 24.7277 17.8896 25.2355 17.9367 25.7454C17.9837 26.2554 18.2313 26.7258 18.6252 27.0532C19.019 27.3805 19.5268 27.538 20.0368 27.491C20.5467 27.444 21.0171 27.1963 21.3445 26.8024L30.9873 15.231C31.0522 15.139 31.1102 15.0423 31.1609 14.9417C31.1609 14.8453 31.1609 14.7874 31.2959 14.691C31.3833 14.4699 31.4291 14.2345 31.4309 13.9967C31.4291 13.759 31.3833 13.5236 31.2959 13.3024C31.2959 13.206 31.2959 13.1482 31.1609 13.0517C31.1102 12.9512 31.0522 12.8545 30.9873 12.7624L21.3445 1.19102C21.1632 0.973316 20.9361 0.798239 20.6794 0.678242C20.4228 0.558245 20.1428 0.496271 19.8595 0.496733C19.4089 0.495852 18.9722 0.652788 18.6252 0.940302C18.4299 1.1022 18.2685 1.30104 18.1502 1.52543C18.0318 1.74981 17.9589 1.99533 17.9357 2.24793C17.9124 2.50053 17.9391 2.75524 18.0144 2.99747C18.0897 3.23971 18.2121 3.46471 18.3745 3.65959L25.3752 12.0682H2.50234C1.99085 12.0682 1.50031 12.2713 1.13863 12.633C0.776951 12.9947 0.573765 13.4852 0.573765 13.9967C0.573765 14.5082 0.776951 14.9988 1.13863 15.3604C1.50031 15.7221 1.99085 15.9253 2.50234 15.9253Z"/></svg>