<svg xmlns="http://www.w3.org/2000/svg" width="48" height="50" fill="none" viewBox="0 0 48 50"><g clip-path="url(#clip0_24_401)"><path fill="#CFD8DC" d="M0 37.5V12.5H38.2678V37.5C38.2678 40.2501 36.1153 42.5 33.4843 42.5H4.78347C2.15252 42.5 0 40.2501 0 37.5Z"/><path fill="#F44336" d="M38.2678 7.5V15H0V7.5C0 4.74995 2.15252 2.5 4.78347 2.5H33.4843C36.1153 2.5 38.2678 4.74995 38.2678 7.5Z"/><path fill="#B71C1C" d="M32.2886 7.5C32.2886 9.62505 30.734 11.25 28.701 11.25C26.668 11.25 25.1134 9.62505 25.1134 7.5C25.1134 5.37495 26.668 3.75 28.701 3.75C30.734 3.75 32.2886 5.37495 32.2886 7.5ZM13.1547 7.5C13.1547 5.37495 11.6001 3.75 9.5671 3.75C7.53408 3.75 5.97949 5.37495 5.97949 7.5C5.97949 9.62505 7.53408 11.25 9.5671 11.25C11.6001 11.25 13.1547 9.62505 13.1547 7.5Z"/><path fill="#B0BEC5" d="M28.7009 0C30.0163 0 31.0927 1.1251 31.0927 2.5V7.49999C31.0927 8.8749 30.0163 9.99999 28.7009 9.99999C27.3856 9.99999 26.3092 8.8749 26.3092 7.49999V2.5C26.3092 1.1251 27.3856 0 28.7009 0ZM9.56703 0C8.25167 0 7.17529 1.1251 7.17529 2.5V7.49999C7.17529 8.8749 8.25167 9.99999 9.56703 9.99999C10.8824 9.99999 11.9588 8.8749 11.9588 7.49999V2.5C11.9588 1.1251 10.8824 0 9.56703 0Z"/><path fill="#90A4AE" d="M28.7008 35H23.9173V30H28.7008V35ZM21.5256 30H16.7421V35H21.5256V30ZM14.3504 30H9.56689V35H14.3504V30ZM28.7008 22.5H23.9173V27.5H28.7008V22.5ZM21.5256 22.5H16.7421V27.5H21.5256V22.5ZM14.3504 22.5H9.56689V27.5H14.3504V22.5Z"/><path fill="#43A047" d="M47.8349 37.5C47.8349 44.375 42.4534 50 35.8762 50C29.2989 50 23.9175 44.375 23.9175 37.5C23.9175 30.625 29.2989 25 35.8762 25C42.4534 25 47.8349 30.625 47.8349 37.5Z"/><path fill="#fff" d="M43.0511 35H38.2676V30H33.4842V35H28.7007V40H33.4842V45H38.2676V40H43.0511V35Z"/></g><defs><clipPath id="clip0_24_401"><rect width="47.835" height="50" fill="#fff"/></clipPath></defs></svg>