<svg xmlns="http://www.w3.org/2000/svg" width="80" height="80" fill="none" viewBox="0 0 80 80"><g id="Frame"><path id="Vector" fill="#F9B5DE" d="M13.64 65.1558H6.33496V75.0908H13.64V65.1558Z"/><g id="Clip path group"><mask id="mask0_255_147" style="mask-type:luminance" width="10" height="12" x="5" y="64" maskUnits="userSpaceOnUse"><g id="eb0b9d7a4b"><path id="Vector_2" fill="#fff" d="M5.75977 64.4268H14.2931V75.6651H5.75977V64.4268Z"/></g></mask><g mask="url(#mask0_255_147)"><g id="Group"><path id="Vector_3" fill="#4C3096" d="M6.86414 74.5626H13.1116V65.6851H6.86414V74.5626ZM13.64 75.6192H6.33497C6.04247 75.6192 5.80664 75.3817 5.80664 75.0909V65.1559C5.80664 64.8642 6.04247 64.6276 6.33497 64.6276H13.64C13.9325 64.6276 14.1691 64.8642 14.1691 65.1559V75.0909C14.1691 75.3817 13.9325 75.6192 13.64 75.6192Z"/></g></g></g><path id="Vector_4" fill="#C3B4E0" d="M24.8393 40.6041H17.5352V75.0908H24.8393V40.6041Z"/><g id="Clip path group_2"><mask id="mask1_255_147" style="mask-type:luminance" width="10" height="37" x="16" y="39" maskUnits="userSpaceOnUse"><g id="d7f7cbfbe0"><path id="Vector_5" fill="#fff" d="M16.8535 39.8933H25.3869V75.665H16.8535V39.8933Z"/></g></mask><g mask="url(#mask1_255_147)"><g id="Group_2"><path id="Vector_6" fill="#4C3096" d="M18.0634 74.5625H24.3109V41.1333H18.0634V74.5625ZM24.8392 75.6191H17.535C17.2425 75.6191 17.0059 75.3816 17.0059 75.0908V40.6041C17.0059 40.3133 17.2425 40.0758 17.535 40.0758H24.8392C25.1309 40.0758 25.3684 40.3133 25.3684 40.6041V75.0908C25.3684 75.3816 25.1309 75.6191 24.8392 75.6191Z"/></g></g></g><path id="Vector_7" fill="#F9B5DE" d="M36.0384 50.3458H28.7334V75.0908H36.0384V50.3458Z"/><g id="Clip path group_3"><mask id="mask2_255_147" style="mask-type:luminance" width="9" height="27" x="28" y="49" maskUnits="userSpaceOnUse"><g id="0622240f8e"><path id="Vector_8" fill="#fff" d="M28.1602 49.7067H36.6935V75.665H28.1602V49.7067Z"/></g></mask><g mask="url(#mask2_255_147)"><g id="Group_3"><path id="Vector_9" fill="#4C3096" d="M29.2621 74.5625H35.5096V50.875H29.2621V74.5625ZM36.0388 75.6191H28.7338C28.4413 75.6191 28.2046 75.3816 28.2046 75.0908V50.3458C28.2046 50.0542 28.4413 49.8175 28.7338 49.8175H36.0388C36.3304 49.8175 36.5671 50.0542 36.5671 50.3458V75.0908C36.5671 75.3816 36.3304 75.6191 36.0388 75.6191Z"/></g></g></g><path id="Vector_10" fill="#C3B4E0" d="M47.2366 36.1866H39.9316V75.0908H47.2366V36.1866Z"/><g id="Clip path group_4"><mask id="mask3_255_147" style="mask-type:luminance" width="9" height="41" x="39" y="35" maskUnits="userSpaceOnUse"><g id="27efbc5002"><path id="Vector_11" fill="#fff" d="M39.2534 35.6267H47.7868V75.6651H39.2534V35.6267Z"/></g></mask><g mask="url(#mask3_255_147)"><g id="Group_4"><path id="Vector_12" fill="#4C3096" d="M40.4598 74.5625H46.7073V36.7158H40.4598V74.5625ZM47.2365 75.6192H39.9315C39.639 75.6192 39.4023 75.3817 39.4023 75.0908V36.1867C39.4023 35.8958 39.639 35.6583 39.9315 35.6583H47.2365C47.529 35.6583 47.7648 35.8958 47.7648 36.1867V75.0908C47.7648 75.3817 47.529 75.6192 47.2365 75.6192Z"/></g></g></g><path id="Vector_13" fill="#F9B5DE" d="M58.4367 58.9092H51.1309V75.0875H58.4367V58.9092Z"/><g id="Clip path group_5"><mask id="mask4_255_147" style="mask-type:luminance" width="10" height="18" x="50" y="58" maskUnits="userSpaceOnUse"><g id="306cc672ff"><path id="Vector_14" fill="#fff" d="M50.5601 58.24H59.0934V75.665H50.5601V58.24Z"/></g></mask><g mask="url(#mask4_255_147)"><g id="Group_5"><path id="Vector_15" fill="#4C3096" d="M51.661 74.5592H57.9085V59.4375H51.661V74.5592ZM58.4369 75.6167H51.1327C50.8402 75.6167 50.6035 75.3792 50.6035 75.0875V58.9092C50.6035 58.6167 50.8402 58.38 51.1327 58.38H58.4369C58.7285 58.38 58.966 58.6167 58.966 58.9092V75.0875C58.966 75.2275 58.9102 75.3625 58.811 75.4617C58.7119 75.5608 58.5769 75.6167 58.4369 75.6167Z"/></g></g></g><path id="Vector_16" fill="#C3B4E0" d="M69.6341 47.3009H62.3291V75.0909H69.6341V47.3009Z"/><g id="Clip path group_6"><mask id="mask5_255_147" style="mask-type:luminance" width="10" height="30" x="61" y="46" maskUnits="userSpaceOnUse"><g id="5207d27e53"><path id="Vector_17" fill="#fff" d="M61.6533 46.72H70.1867V75.6649H61.6533V46.72Z"/></g></mask><g mask="url(#mask5_255_147)"><g id="Group_6"><path id="Vector_18" fill="#4C3096" d="M62.8583 74.5625H69.1058V47.8284H62.8583V74.5625ZM69.6341 75.6192H62.3291C62.0374 75.6192 61.8008 75.3817 61.8008 75.0908V47.3C61.8008 47.0084 62.0374 46.7709 62.3291 46.7709H69.6341C69.9266 46.7709 70.1633 47.0084 70.1633 47.3V75.0908C70.1633 75.3817 69.9266 75.6192 69.6341 75.6192Z"/></g></g></g><path id="Vector_19" fill="#4C3096" d="M6.93846 51.4859C6.83513 51.4859 6.73179 51.4559 6.64096 51.3934C6.39929 51.2292 6.33763 50.9001 6.50263 50.6592L19.5951 31.5026C19.6843 31.3726 19.8268 31.2892 19.9826 31.2734C20.1401 31.2592 20.2943 31.3151 20.406 31.4267L31.5643 42.5659L45.3793 25.7959C45.4826 25.6709 45.636 25.5926 45.7993 25.6034C45.961 25.6067 46.1126 25.6851 46.2101 25.8142L58.5901 42.3001L72.521 25.7917C72.7093 25.5676 73.0418 25.5401 73.266 25.7276C73.4893 25.9167 73.5176 26.2501 73.3285 26.4734L58.9701 43.4892C58.866 43.6117 58.7118 43.6801 58.551 43.6767C58.3893 43.6717 58.2401 43.5942 58.1426 43.4651L45.7676 26.9876L32.0101 43.6876C31.9151 43.8026 31.7768 43.8717 31.6285 43.8801C31.4793 43.8842 31.3335 43.8309 31.2285 43.7259L20.1093 32.6251L7.37513 51.2551C7.27346 51.4059 7.10679 51.4859 6.93846 51.4859Z"/><path id="Vector_20" fill="#FFFA99" d="M10.6152 50.7541C10.6152 52.7833 8.96936 54.4283 6.93852 54.4283C4.90936 54.4283 3.2627 52.7833 3.2627 50.7541C3.2627 48.7241 4.90936 47.08 6.93852 47.08C8.96936 47.08 10.6152 48.7241 10.6152 50.7541Z"/><g id="Clip path group_7"><mask id="mask6_255_147" style="mask-type:luminance" width="10" height="10" x="2" y="46" maskUnits="userSpaceOnUse"><g id="2bb5de2e75"><path id="Vector_21" fill="#fff" d="M2.74658 46.5067H11.3066V55.04H2.74658V46.5067Z"/></g></mask><g mask="url(#mask6_255_147)"><g id="Group_7"><path id="Vector_22" fill="#4C3096" d="M6.93805 47.6084C5.20305 47.6084 3.79139 49.0201 3.79139 50.7542C3.79139 52.4884 5.20305 53.9001 6.93805 53.9001C8.67388 53.9001 10.0864 52.4884 10.0864 50.7542C10.0864 49.0201 8.67388 47.6084 6.93805 47.6084ZM6.93805 54.9567C4.61972 54.9567 2.73389 53.0717 2.73389 50.7542C2.73389 48.4367 4.61972 46.5509 6.93805 46.5509C9.25638 46.5509 11.1439 48.4367 11.1439 50.7542C11.1439 53.0717 9.25638 54.9567 6.93805 54.9567Z"/></g></g></g><path id="Vector_23" fill="#FFFA99" d="M35.2776 43.1484C35.2776 45.1784 33.6326 46.8226 31.6026 46.8226C29.5718 46.8226 27.9268 45.1784 27.9268 43.1484C27.9268 41.1184 29.5718 39.4742 31.6026 39.4742C33.6326 39.4742 35.2776 41.1184 35.2776 43.1484Z"/><path id="Vector_24" fill="#4C3096" d="M31.6025 40.0024C29.8675 40.0024 28.455 41.4141 28.455 43.1483C28.455 44.8825 29.8675 46.2941 31.6025 46.2941C33.3375 46.2941 34.7491 44.8825 34.7491 43.1483C34.7491 41.4141 33.3375 40.0024 31.6025 40.0024ZM31.6025 47.3508C29.2833 47.3508 27.3975 45.4658 27.3975 43.1483C27.3975 40.8308 29.2833 38.9449 31.6025 38.9449C33.9208 38.9449 35.8066 40.8308 35.8066 43.1483C35.8066 45.4658 33.9208 47.3508 31.6025 47.3508Z"/><path id="Vector_25" fill="#FFFA99" d="M49.7398 25.9725C49.7398 28.0008 48.0948 29.6467 46.064 29.6467C44.034 29.6467 42.3882 28.0008 42.3882 25.9725C42.3882 23.9425 44.034 22.2983 46.064 22.2983C48.0948 22.2983 49.7398 23.9425 49.7398 25.9725Z"/><path id="Vector_26" fill="#4C3096" d="M46.064 22.8258C44.329 22.8258 42.9174 24.2366 42.9174 25.9725C42.9174 27.7066 44.329 29.1183 46.064 29.1183C47.799 29.1183 49.2107 27.7066 49.2107 25.9725C49.2107 24.2366 47.799 22.8258 46.064 22.8258ZM46.064 30.175C43.7457 30.175 41.8599 28.29 41.8599 25.9725C41.8599 23.6541 43.7457 21.7683 46.064 21.7683C48.3824 21.7683 50.2682 23.6541 50.2682 25.9725C50.2682 28.29 48.3824 30.175 46.064 30.175Z"/><path id="Vector_27" fill="#FFFA99" d="M76.6007 25.9725C76.6007 28.0008 74.9549 29.6467 72.9249 29.6467C70.894 29.6467 69.249 28.0008 69.249 25.9725C69.249 23.9425 70.894 22.2983 72.9249 22.2983C74.9549 22.2983 76.6007 23.9425 76.6007 25.9725Z"/><g id="Clip path group_8"><mask id="mask7_255_147" style="mask-type:luminance" width="10" height="10" x="68" y="21" maskUnits="userSpaceOnUse"><g id="94cb5308e6"><path id="Vector_28" fill="#fff" d="M68.6934 21.76H77.1467V30.2933H68.6934V21.76Z"/></g></mask><g mask="url(#mask7_255_147)"><g id="Group_8"><path id="Vector_29" fill="#4C3096" d="M72.9249 22.8258C71.1899 22.8258 69.7782 24.2366 69.7782 25.9725C69.7782 27.7066 71.1899 29.1183 72.9249 29.1183C74.6599 29.1183 76.0715 27.7066 76.0715 25.9725C76.0715 24.2366 74.6599 22.8258 72.9249 22.8258ZM72.9249 30.175C70.6065 30.175 68.7207 28.29 68.7207 25.9725C68.7207 23.6541 70.6065 21.7683 72.9249 21.7683C75.2432 21.7683 77.129 23.6541 77.129 25.9725C77.129 28.29 75.2432 30.175 72.9249 30.175Z"/></g></g></g></g></svg>