<svg width="26" height="33" viewBox="0 0 26 33" fill="none" xmlns="http://www.w3.org/2000/svg">
<path d="M12.8 17.7748C12.3129 17.7691 11.8357 17.9128 11.4327 18.1865C11.0297 18.4602 10.7202 18.8508 10.5459 19.3057C10.3716 19.7606 10.3409 20.258 10.4578 20.7309C10.5748 21.2038 10.8338 21.6295 11.2 21.9508V24.1748C11.2 24.5992 11.3686 25.0061 11.6686 25.3062C11.9687 25.6062 12.3756 25.7748 12.8 25.7748C13.2243 25.7748 13.6313 25.6062 13.9314 25.3062C14.2314 25.0061 14.4 24.5992 14.4 24.1748V21.9508C14.7662 21.6295 15.0252 21.2038 15.1422 20.7309C15.2591 20.258 15.2283 19.7606 15.0541 19.3057C14.8798 18.8508 14.5703 18.4602 14.1673 18.1865C13.7643 17.9128 13.2871 17.7691 12.8 17.7748ZM20.8 11.3748V8.1748C20.8 6.05307 19.9571 4.01824 18.4568 2.51795C16.9566 1.01766 14.9217 0.174805 12.8 0.174805C10.6783 0.174805 8.64343 1.01766 7.14314 2.51795C5.64285 4.01824 4.8 6.05307 4.8 8.1748V11.3748C3.52696 11.3748 2.30606 11.8805 1.40589 12.7807C0.505713 13.6809 0 14.9018 0 16.1748V27.3748C0 28.6478 0.505713 29.8687 1.40589 30.7689C2.30606 31.6691 3.52696 32.1748 4.8 32.1748H20.8C22.073 32.1748 23.2939 31.6691 24.1941 30.7689C25.0943 29.8687 25.6 28.6478 25.6 27.3748V16.1748C25.6 14.9018 25.0943 13.6809 24.1941 12.7807C23.2939 11.8805 22.073 11.3748 20.8 11.3748ZM8 8.1748C8 6.90177 8.50571 5.68087 9.40588 4.78069C10.3061 3.88052 11.527 3.3748 12.8 3.3748C14.073 3.3748 15.2939 3.88052 16.1941 4.78069C17.0943 5.68087 17.6 6.90177 17.6 8.1748V11.3748H8V8.1748ZM22.4 27.3748C22.4 27.7992 22.2314 28.2061 21.9314 28.5062C21.6313 28.8062 21.2243 28.9748 20.8 28.9748H4.8C4.37565 28.9748 3.96869 28.8062 3.66863 28.5062C3.36857 28.2061 3.2 27.7992 3.2 27.3748V16.1748C3.2 15.7505 3.36857 15.3435 3.66863 15.0434C3.96869 14.7434 4.37565 14.5748 4.8 14.5748H20.8C21.2243 14.5748 21.6313 14.7434 21.9314 15.0434C22.2314 15.3435 22.4 15.7505 22.4 16.1748V27.3748Z" fill="black"/>
</svg>
