<svg width="137" height="28" viewBox="0 0 137 28" fill="none" xmlns="http://www.w3.org/2000/svg">
<path d="M12.1064 18.229C12.1064 17.1304 12.4198 15.4458 13.0464 13.1753C11.0851 13.2241 9.58366 13.2811 8.54199 13.3462C8.22461 13.924 7.93571 14.4733 7.67529 14.9941L6.91846 16.4956C5.91748 18.465 5.01823 19.763 4.2207 20.3896C3.61035 20.8779 2.96338 21.1221 2.27979 21.1221C1.75895 21.1221 1.36426 20.9512 1.0957 20.6094C0.998047 20.471 0.941081 20.3408 0.924805 20.2188C0.908529 20.0885 0.937012 20.0031 1.01025 19.9624C1.94613 19.6125 2.70703 19.0794 3.29297 18.3633C3.80566 17.7204 4.31836 16.9351 4.83105 16.0073L6.21045 13.5415L5.44141 13.6514C4.95312 13.7409 4.70898 13.6636 4.70898 13.4194C4.70898 13.1753 4.85547 12.9434 5.14844 12.7236C5.66113 12.3411 6.16162 12.0889 6.6499 11.9668L7.1748 11.8447C8.50944 9.63932 9.52669 8.09717 10.2266 7.21826C10.9346 6.33936 11.5775 5.60693 12.1553 5.021C12.7412 4.43506 13.3556 3.91829 13.9985 3.4707C15.4064 2.50228 16.7939 2.01807 18.1611 2.01807C18.5762 2.01807 18.8569 2.10352 19.0034 2.27441C19.2476 2.54297 19.3249 2.83187 19.2354 3.14111C19.1458 3.44222 18.9993 3.8776 18.7959 4.44727C17.4938 7.99544 16.7004 10.1927 16.4155 11.0391C16.5457 11.0309 16.6637 11.0269 16.7695 11.0269H17.0381C17.9495 11.0269 18.4378 11.1164 18.5029 11.2954C18.5192 11.3524 18.5273 11.4582 18.5273 11.6128C18.5273 11.7593 18.4785 11.9302 18.3809 12.1255C18.2913 12.3208 18.1408 12.4876 17.9292 12.626C17.4979 12.9189 16.7736 13.0898 15.7563 13.1387C15.203 15.0511 14.8856 16.3735 14.8042 17.106C14.731 17.8384 14.7554 18.3348 14.8774 18.5952C15.0076 18.8475 15.1867 18.9736 15.4146 18.9736C15.6506 18.9736 15.8418 18.9533 15.9883 18.9126C16.1348 18.8638 16.265 18.8109 16.3789 18.7539L16.6963 18.6074C16.7777 18.5586 16.859 18.5342 16.9404 18.5342C17.0299 18.5342 17.1032 18.5911 17.1602 18.7051C17.2171 18.8109 17.2456 18.9533 17.2456 19.1323C17.2456 19.3114 17.1683 19.527 17.0137 19.7793C16.8672 20.0234 16.6719 20.2432 16.4277 20.4385C15.8581 20.8942 15.2152 21.1221 14.499 21.1221C13.4004 21.1221 12.668 20.6338 12.3018 19.6572C12.1715 19.3154 12.1064 19.0103 12.1064 18.7417V18.229ZM9.66504 11.4175C11.1136 11.2303 12.4564 11.1204 13.6934 11.0879C13.9212 10.388 14.1654 9.69629 14.4258 9.0127L15.1826 7.05957C15.443 6.44108 15.6994 5.85514 15.9517 5.30176L16.6597 3.80029C14.967 4.23975 13.2946 5.70052 11.6426 8.18262C11.2926 8.70345 10.9508 9.24056 10.6172 9.79395L9.66504 11.4175ZM26.6875 18.3389C25.4505 20.1943 24.0793 21.1221 22.5737 21.1221C21.2147 21.1221 20.2992 20.3978 19.8271 18.9492C19.6644 18.4528 19.583 17.8424 19.583 17.1182C19.583 16.3939 19.6847 15.6696 19.8882 14.9453C20.0998 14.2129 20.3846 13.5212 20.7427 12.8701C21.1007 12.2191 21.5199 11.6209 22 11.0757C22.4883 10.5223 23.0091 10.0462 23.5625 9.64746C24.7181 8.79297 25.8656 8.36572 27.0049 8.36572C28.1442 8.36572 28.958 8.89876 29.4463 9.96484C29.5439 9.85905 29.6335 9.75326 29.7148 9.64746C29.7962 9.53353 29.8857 9.42773 29.9834 9.33008C30.195 9.11849 30.3781 9.0127 30.5327 9.0127C30.6955 9.0127 30.8623 9.04118 31.0332 9.09814C31.2122 9.15511 31.3831 9.23242 31.5459 9.33008C31.9447 9.56608 32.0952 9.78581 31.9976 9.98926C31.55 10.9577 31.1756 11.9098 30.8745 12.8457L29.0679 18.6074C27.6437 22.9775 25.8371 25.8014 23.6479 27.0791C23.0701 27.4209 22.5697 27.6162 22.1465 27.665C21.7233 27.722 21.4181 27.7261 21.231 27.6772C21.0438 27.6284 20.877 27.5592 20.7305 27.4697C20.4131 27.2663 20.2544 27.0832 20.2544 26.9204C20.2544 26.6356 20.4416 26.4606 20.8159 26.3955C21.1984 26.3304 21.5972 26.1758 22.0122 25.9316C22.4272 25.6956 22.8219 25.4067 23.1963 25.0649C24.7344 23.6408 25.8981 21.3988 26.6875 18.3389ZM23.0254 14.103C22.8138 14.689 22.647 15.2912 22.5249 15.9097C22.4028 16.52 22.3418 17.0205 22.3418 17.4111C22.3418 17.8018 22.354 18.0988 22.3784 18.3022C22.4028 18.5057 22.4517 18.6847 22.5249 18.8394C22.6877 19.1812 22.9277 19.3521 23.2451 19.3521C23.5625 19.3521 23.8758 19.2422 24.1851 19.0225C24.4943 18.7946 24.8198 18.4854 25.1616 18.0947C25.5034 17.7041 25.8452 17.2443 26.187 16.7153C26.5288 16.1864 26.8543 15.6167 27.1636 15.0063C27.8472 13.6554 28.3273 12.3656 28.604 11.1367C28.5633 10.9089 28.425 10.6769 28.189 10.4409C27.7251 9.99333 27.306 9.76953 26.9316 9.76953C26.5573 9.76953 26.1829 9.88753 25.8086 10.1235C25.4342 10.3514 25.0762 10.6647 24.7344 11.0635C24.4007 11.4541 24.0874 11.9139 23.7944 12.4429C23.5015 12.9637 23.2451 13.5171 23.0254 14.103ZM33.0898 16.7275C33.1224 16.0195 33.2404 15.3441 33.4438 14.7012C33.6473 14.0501 33.9199 13.4235 34.2617 12.8213C34.6035 12.2109 35.0023 11.6372 35.458 11.1001C35.9219 10.5549 36.4224 10.0788 36.9595 9.67188C38.1232 8.80111 39.2992 8.36572 40.4873 8.36572C41.8789 8.36572 42.8066 8.93945 43.2705 10.0869C43.4333 10.4775 43.5106 10.9414 43.5024 11.4785C43.4943 12.0075 43.3926 12.4998 43.1973 12.9556C43.002 13.4032 42.7293 13.8141 42.3794 14.1885C42.0376 14.5547 41.6266 14.8843 41.1465 15.1772C40.6745 15.4702 40.1577 15.7184 39.5962 15.9219C38.4406 16.3288 37.2036 16.5404 35.8853 16.5566C35.8527 16.6706 35.8324 16.8415 35.8242 17.0693C35.8161 17.2972 35.8405 17.5535 35.8975 17.8384C35.9544 18.1151 36.0521 18.3633 36.1904 18.583C36.4834 19.0713 36.9066 19.3154 37.46 19.3154C38.404 19.3154 39.3236 19.0387 40.2188 18.4854C40.5361 18.2982 40.7925 18.1069 40.9878 17.9116C41.1912 17.7082 41.3662 17.6064 41.5127 17.6064C41.6592 17.6064 41.7853 17.696 41.8911 17.875C42.005 18.0459 42.062 18.2412 42.062 18.4609C42.062 18.8923 41.9399 19.2666 41.6958 19.584C40.6704 20.6094 39.1445 21.1221 37.1182 21.1221C35.9219 21.1221 34.9616 20.764 34.2373 20.0479C33.4235 19.234 33.041 18.1273 33.0898 16.7275ZM40.2188 9.98926C39.3643 9.98926 38.5423 10.5752 37.7529 11.7471C37.0856 12.7562 36.5485 13.9525 36.1416 15.3359C37.5007 15.1976 38.6807 14.6605 39.6816 13.7246C40.6012 12.8457 41.061 12.0034 41.061 11.1978C41.061 10.3921 40.7803 9.98926 40.2188 9.98926ZM66.9517 4.31299C66.7157 4.48389 66.439 4.6141 66.1216 4.70361C65.8123 4.78499 65.3932 4.82568 64.8643 4.82568C64.3434 4.82568 63.6639 4.78906 62.8257 4.71582C62.6304 5.24479 62.431 5.86328 62.2275 6.57129L60.8237 11.3564C59.0903 17.0856 57.243 20.3001 55.2817 21C55.1434 21.057 54.9644 21.0854 54.7446 21.0854C54.533 21.0854 54.3581 21.057 54.2197 21C54.0895 20.9512 53.9797 20.8861 53.8901 20.8047C53.7111 20.6582 53.6216 20.5117 53.6216 20.3652C53.6216 20.2188 53.6582 20.1211 53.7314 20.0723L54.0488 19.877C55.2207 19.112 56.2949 17.0775 57.2715 13.7734L58.1504 10.7949C58.9398 8.11751 59.6763 6.01383 60.3599 4.48389C59.717 4.42692 59.2287 4.39844 58.895 4.39844C57.9347 4.39844 57.243 4.53271 56.8198 4.80127C56.4048 5.06982 56.1118 5.36279 55.9409 5.68018C55.7782 5.98942 55.6927 6.20508 55.6846 6.32715C55.6602 6.55501 55.5869 6.7015 55.4648 6.7666C55.3428 6.82357 55.1922 6.85205 55.0132 6.85205C54.8423 6.85205 54.6632 6.79102 54.4761 6.66895C54.2889 6.53874 54.1343 6.37598 54.0122 6.18066C53.7518 5.7819 53.6501 5.33431 53.707 4.83789C53.764 4.33333 53.9268 3.90202 54.1953 3.54395C54.472 3.17773 54.7975 2.8807 55.1719 2.65283C55.8636 2.22965 56.592 2.01807 57.3569 2.01807C58.13 2.01807 58.8584 2.05876 59.542 2.14014C60.2337 2.21338 60.9214 2.29883 61.605 2.39648C63.4198 2.64062 64.5754 2.7627 65.0718 2.7627C65.5682 2.7627 65.9344 2.73421 66.1704 2.67725C66.4146 2.62028 66.6221 2.53483 66.793 2.4209C66.9639 2.30697 67.0819 2.23372 67.147 2.20117C67.2202 2.16048 67.3341 2.14014 67.4888 2.14014C67.7329 2.14014 67.8387 2.32731 67.8062 2.70166C67.7736 3.06787 67.6841 3.38525 67.5376 3.65381C67.3911 3.91423 67.1958 4.13395 66.9517 4.31299ZM65.041 20.707C64.8783 20.585 64.748 20.4507 64.6504 20.3042C64.5527 20.1496 64.4998 20.0194 64.4917 19.9136C64.4836 19.7996 64.5039 19.6654 64.5527 19.5107C64.6097 19.348 64.6829 19.1527 64.7725 18.9248C66.4326 14.8395 67.2627 12.097 67.2627 10.6973C67.2383 10.3066 67.104 10.0299 66.8599 9.86719L66.6157 9.69629C66.5425 9.63932 66.5018 9.54167 66.4937 9.40332C66.4937 9.25684 66.5465 9.11849 66.6523 8.98828C66.7581 8.85807 66.8965 8.74414 67.0674 8.64648C67.4173 8.45931 67.7754 8.36572 68.1416 8.36572C68.516 8.36572 68.8049 8.40641 69.0083 8.48779C69.2199 8.56917 69.3989 8.67904 69.5454 8.81738C69.8547 9.11035 70.0093 9.4196 70.0093 9.74512C70.0174 10.0706 69.9808 10.4002 69.8994 10.7339C69.8262 11.0675 69.7367 11.3971 69.6309 11.7227C69.5251 12.04 69.4193 12.3452 69.3135 12.6382C69.2077 12.923 69.1385 13.1346 69.106 13.2729C69.0409 13.5578 69.0164 13.7368 69.0327 13.8101C69.228 13.6392 69.346 13.4723 69.3867 13.3096L69.8628 12.4062C70.9207 10.502 71.9543 9.24056 72.9634 8.62207C73.2563 8.45117 73.6063 8.36572 74.0132 8.36572C74.4282 8.36572 74.7619 8.51221 75.0142 8.80518C75.2664 9.09001 75.3966 9.40739 75.4048 9.75732C75.4211 10.1073 75.3966 10.4002 75.3315 10.6362C75.2746 10.8641 75.1851 11.0798 75.063 11.2832C74.7944 11.7389 74.4689 11.9668 74.0864 11.9668C73.9806 11.9668 73.883 11.9302 73.7935 11.8569L73.5249 11.625C73.2563 11.389 72.9959 11.271 72.7437 11.271C72.4995 11.271 72.1984 11.4338 71.8403 11.7593C71.4904 12.0848 71.1242 12.5039 70.7417 13.0166C69.4559 14.7174 68.4061 16.6217 67.5923 18.7295L67.0552 20.1455C66.9168 20.4954 66.7948 20.7477 66.689 20.9023C66.5832 21.0488 66.4245 21.1221 66.2129 21.1221C66.0094 21.1221 65.8019 21.0814 65.5903 21C65.3869 20.9268 65.2038 20.8291 65.041 20.707ZM84.8711 17.7529C84.8711 18.5016 85.1356 18.876 85.6646 18.876C86.0308 18.876 86.3319 18.819 86.5679 18.7051C86.812 18.5911 86.9748 18.5342 87.0562 18.5342C87.2271 18.5342 87.3125 18.6237 87.3125 18.8027C87.3125 19.5026 86.9463 20.1048 86.2139 20.6094C85.4408 21.1383 84.6514 21.2686 83.8457 21C83.3167 20.8128 82.9261 20.41 82.6738 19.7915C82.5518 19.4741 82.4907 19.1852 82.4907 18.9248C82.4907 18.5016 82.5314 18.054 82.6128 17.582C81.856 19.1283 80.916 20.1943 79.793 20.7803C79.3454 21.0081 78.8693 21.1221 78.3647 21.1221C77.8602 21.1221 77.4207 21.0203 77.0464 20.8169C76.6802 20.6053 76.3669 20.3164 76.1064 19.9502C75.5775 19.1852 75.3374 18.2249 75.3862 17.0693C75.4351 15.6208 75.8623 14.2007 76.668 12.8091C77.4085 11.507 78.3444 10.445 79.4756 9.62305C80.6068 8.78483 81.6647 8.36572 82.6494 8.36572C83.6341 8.36572 84.4276 8.81738 85.0298 9.7207C85.5913 8.81738 86.0877 8.36572 86.519 8.36572C86.9829 8.36572 87.3328 8.45117 87.5688 8.62207C88.0164 8.94759 88.1751 9.23242 88.0449 9.47656C86.0023 13.6595 84.9525 16.2637 84.8955 17.2891C84.8792 17.4355 84.8711 17.5902 84.8711 17.7529ZM78.0962 17.8018C78.0962 18.7783 78.4095 19.2666 79.0361 19.2666C79.5163 19.2666 80.1063 18.8597 80.8062 18.0459C81.8315 16.8496 82.7389 15.2383 83.5283 13.2119C83.7806 12.5771 83.9922 11.9424 84.1631 11.3076C84.1305 10.7542 83.8986 10.3473 83.4673 10.0869C83.3208 9.9974 83.1011 9.95264 82.8081 9.95264C82.5233 9.95264 82.1855 10.0584 81.7949 10.27C81.4124 10.4816 81.0381 10.7705 80.6719 11.1367C80.3138 11.5029 79.9761 11.9383 79.6587 12.4429C79.3494 12.9393 79.0768 13.4805 78.8408 14.0664C78.3444 15.3197 78.0962 16.5648 78.0962 17.8018ZM89.1982 16.7886C89.2145 16.0806 89.3244 15.3766 89.5278 14.6768C89.7394 13.9688 90.0161 13.3014 90.3579 12.6748C90.7078 12.0482 91.1188 11.4704 91.5908 10.9414C92.071 10.4124 92.5918 9.95671 93.1533 9.57422C94.3252 8.76855 95.5581 8.36572 96.8521 8.36572C98.1867 8.36572 99.0941 8.89876 99.5742 9.96484C99.7451 10.3473 99.8224 10.7827 99.8062 11.271C99.798 11.7511 99.7207 12.1947 99.5742 12.6016C99.4277 13.0003 99.2446 13.3584 99.0249 13.6758C98.5285 14.3919 98.028 14.75 97.5234 14.75C96.9619 14.75 96.5469 14.5954 96.2783 14.2861C96.0423 14.0176 95.9691 13.7043 96.0586 13.3462C96.083 13.2404 96.1562 13.1468 96.2783 13.0654C96.4004 12.9759 96.555 12.8376 96.7422 12.6504C97.2712 12.097 97.5479 11.45 97.5723 10.7095C97.5885 10.2049 97.2793 9.95264 96.6445 9.95264C95.9609 9.95264 95.2448 10.3351 94.4961 11.1001C93.4056 12.215 92.6366 13.6432 92.189 15.3848C91.7983 16.8984 91.8716 18.0052 92.4087 18.7051C92.7261 19.112 93.1574 19.3154 93.7026 19.3154C94.6222 19.3154 95.5093 18.9899 96.3638 18.3389C96.6242 18.1354 96.8358 17.9279 96.9985 17.7163C97.1613 17.5047 97.3118 17.3989 97.4502 17.3989C97.5885 17.3989 97.7025 17.4681 97.792 17.6064C97.8896 17.7367 97.9385 17.9076 97.9385 18.1191C97.9385 18.5993 97.7228 19.0713 97.2915 19.5352C96.1847 20.5931 94.8542 21.1221 93.2998 21.1221C91.9733 21.1221 90.9479 20.7437 90.2236 19.9868C89.5075 19.2381 89.1657 18.172 89.1982 16.7886ZM109.224 21.1099C107.376 21.1099 105.903 19.3561 104.805 15.8486C104.373 16.6462 104.015 17.3704 103.73 18.0215L102.998 19.6816C102.786 20.1374 102.587 20.4914 102.4 20.7437C102.221 20.9959 102.017 21.1221 101.79 21.1221C101.562 21.1221 101.354 21.0814 101.167 21C100.98 20.9268 100.817 20.8291 100.679 20.707C100.394 20.4466 100.251 20.1618 100.251 19.8525C100.251 19.7305 100.337 19.4904 100.508 19.1323L100.996 18.1436C102.518 15.0104 103.897 11.0391 105.134 6.22949C105.59 4.4554 105.92 2.86035 106.123 1.44434C106.213 0.760742 106.546 0.418945 107.124 0.418945C107.466 0.418945 107.751 0.508464 107.979 0.6875C108.418 1.03743 108.63 1.41585 108.613 1.82275C108.597 2.22152 108.54 2.67318 108.442 3.17773C108.353 3.68229 108.231 4.23568 108.076 4.83789C107.922 5.43197 107.747 6.05452 107.551 6.70557C107.022 8.40641 106.628 9.61898 106.367 10.3433L105.22 13.5049C105.073 13.8792 104.959 14.1519 104.878 14.3228C106.766 13.5741 108.182 12.7277 109.126 11.7837C109.696 11.214 109.98 10.681 109.98 10.1846C109.98 9.93229 109.895 9.74919 109.724 9.63525C109.561 9.52132 109.447 9.43587 109.382 9.37891C109.325 9.3138 109.321 9.20394 109.37 9.04932C109.427 8.88656 109.582 8.73193 109.834 8.58545C110.086 8.43896 110.391 8.36572 110.75 8.36572C111.108 8.36572 111.405 8.39827 111.641 8.46338C111.885 8.52848 112.096 8.63021 112.275 8.76855C112.674 9.05339 112.874 9.45622 112.874 9.97705C112.874 10.4979 112.764 10.978 112.544 11.4175C112.324 11.8488 111.982 12.2679 111.519 12.6748C110.599 13.4561 109.126 14.2129 107.1 14.9453C107.352 16.0277 107.816 16.9798 108.491 17.8018C109.134 18.583 109.724 18.9736 110.261 18.9736C110.546 18.9736 110.79 18.9248 110.994 18.8271L111.433 18.6074C111.523 18.5586 111.608 18.5342 111.689 18.5342C111.893 18.5342 111.995 18.6562 111.995 18.9004C111.995 19.112 111.958 19.2992 111.885 19.4619C111.812 19.6165 111.706 19.7834 111.567 19.9624C111.437 20.1414 111.266 20.3164 111.055 20.4873C110.526 20.9023 109.915 21.1099 109.224 21.1099ZM113.966 16.7275C113.998 16.0195 114.116 15.3441 114.32 14.7012C114.523 14.0501 114.796 13.4235 115.138 12.8213C115.479 12.2109 115.878 11.6372 116.334 11.1001C116.798 10.5549 117.298 10.0788 117.835 9.67188C118.999 8.80111 120.175 8.36572 121.363 8.36572C122.755 8.36572 123.683 8.93945 124.146 10.0869C124.309 10.4775 124.387 10.9414 124.378 11.4785C124.37 12.0075 124.269 12.4998 124.073 12.9556C123.878 13.4032 123.605 13.8141 123.255 14.1885C122.914 14.5547 122.503 14.8843 122.022 15.1772C121.55 15.4702 121.034 15.7184 120.472 15.9219C119.317 16.3288 118.08 16.5404 116.761 16.5566C116.729 16.6706 116.708 16.8415 116.7 17.0693C116.692 17.2972 116.716 17.5535 116.773 17.8384C116.83 18.1151 116.928 18.3633 117.066 18.583C117.359 19.0713 117.783 19.3154 118.336 19.3154C119.28 19.3154 120.2 19.0387 121.095 18.4854C121.412 18.2982 121.668 18.1069 121.864 17.9116C122.067 17.7082 122.242 17.6064 122.389 17.6064C122.535 17.6064 122.661 17.696 122.767 17.875C122.881 18.0459 122.938 18.2412 122.938 18.4609C122.938 18.8923 122.816 19.2666 122.572 19.584C121.546 20.6094 120.021 21.1221 117.994 21.1221C116.798 21.1221 115.838 20.764 115.113 20.0479C114.299 19.234 113.917 18.1273 113.966 16.7275ZM121.095 9.98926C120.24 9.98926 119.418 10.5752 118.629 11.7471C117.962 12.7562 117.424 13.9525 117.018 15.3359C118.377 15.1976 119.557 14.6605 120.558 13.7246C121.477 12.8457 121.937 12.0034 121.937 11.1978C121.937 10.3921 121.656 9.98926 121.095 9.98926ZM125.935 20.707C125.772 20.585 125.642 20.4507 125.544 20.3042C125.446 20.1496 125.393 20.0194 125.385 19.9136C125.377 19.7996 125.397 19.6654 125.446 19.5107C125.503 19.348 125.576 19.1527 125.666 18.9248C127.326 14.8395 128.156 12.097 128.156 10.6973C128.132 10.3066 127.998 10.0299 127.753 9.86719L127.509 9.69629C127.436 9.63932 127.395 9.54167 127.387 9.40332C127.387 9.25684 127.44 9.11849 127.546 8.98828C127.652 8.85807 127.79 8.74414 127.961 8.64648C128.311 8.45931 128.669 8.36572 129.035 8.36572C129.41 8.36572 129.698 8.40641 129.902 8.48779C130.113 8.56917 130.292 8.67904 130.439 8.81738C130.748 9.11035 130.903 9.4196 130.903 9.74512C130.911 10.0706 130.874 10.4002 130.793 10.7339C130.72 11.0675 130.63 11.3971 130.524 11.7227C130.419 12.04 130.313 12.3452 130.207 12.6382C130.101 12.923 130.032 13.1346 130 13.2729C129.934 13.5578 129.91 13.7368 129.926 13.8101C130.122 13.6392 130.24 13.4723 130.28 13.3096L130.756 12.4062C131.814 10.502 132.848 9.24056 133.857 8.62207C134.15 8.45117 134.5 8.36572 134.907 8.36572C135.322 8.36572 135.655 8.51221 135.908 8.80518C136.16 9.09001 136.29 9.40739 136.298 9.75732C136.315 10.1073 136.29 10.4002 136.225 10.6362C136.168 10.8641 136.079 11.0798 135.957 11.2832C135.688 11.7389 135.362 11.9668 134.98 11.9668C134.874 11.9668 134.777 11.9302 134.687 11.8569L134.418 11.625C134.15 11.389 133.889 11.271 133.637 11.271C133.393 11.271 133.092 11.4338 132.734 11.7593C132.384 12.0848 132.018 12.5039 131.635 13.0166C130.349 14.7174 129.3 16.6217 128.486 18.7295L127.949 20.1455C127.81 20.4954 127.688 20.7477 127.583 20.9023C127.477 21.0488 127.318 21.1221 127.106 21.1221C126.903 21.1221 126.695 21.0814 126.484 21C126.28 20.9268 126.097 20.8291 125.935 20.707Z" fill="white"/>
</svg>
