<svg width="66" height="66" viewBox="0 0 66 66" fill="none" xmlns="http://www.w3.org/2000/svg">
<g id="sand watch">
<path id="Vector" d="M42.4567 47.4541C41.1951 45.5463 39.5541 43.9128 37.7934 42.4635C36.9003 41.7279 35.9708 41.0369 35.0221 40.3749C34.8028 40.2216 33.0675 38.7813 32.9266 38.8679C29.9181 40.7248 26.9852 43.1249 24.724 45.8474C23.624 47.1722 22.3872 48.8683 22.3872 50.6702C22.3872 51.9758 22.7743 53.2112 23.4638 54.3105C23.4638 54.7264 27.7442 55.064 33.0249 55.064C38.3056 55.064 42.5866 54.7264 42.5866 54.3105C43.2762 53.2112 43.6633 51.9758 43.6633 50.6702C43.6633 49.509 43.0816 48.3994 42.4567 47.4541Z" fill="#FBC046"/>
<g id="Clip path group">
<mask id="mask0_255_84" style="mask-type:luminance" maskUnits="userSpaceOnUse" x="14" y="52" width="38" height="9">
<g id="6efb6022e5">
<path id="Vector_2" d="M14.8101 52.272H51.242V60.368H14.8101V52.272Z" fill="white"/>
</g>
</mask>
<g mask="url(#mask0_255_84)">
<g id="Group">
<path id="Vector_3" d="M51.2202 56.2849C51.2202 58.4691 43.074 60.2401 33.0248 60.2401C22.9763 60.2401 14.8301 58.4691 14.8301 56.2849C14.8301 54.1007 22.9763 52.3297 33.0248 52.3297C43.074 52.3297 51.2202 54.1007 51.2202 56.2849Z" fill="#DE3271"/>
</g>
</g>
</g>
<g id="Clip path group_2">
<mask id="mask1_255_84" style="mask-type:luminance" maskUnits="userSpaceOnUse" x="14" y="53" width="38" height="9">
<g id="74ae5a2906">
<path id="Vector_4" d="M14.8101 53.856H51.242V61.886H14.8101V53.856Z" fill="white"/>
</g>
</mask>
<g mask="url(#mask1_255_84)">
<g id="Group_2">
<path id="Vector_5" d="M51.2202 57.9336C51.2202 60.1185 43.074 61.8888 33.0248 61.8888C22.9763 61.8888 14.8301 60.1185 14.8301 57.9336C14.8301 55.7494 22.9763 53.9784 33.0248 53.9784C43.074 53.9784 51.2202 55.7494 51.2202 57.9336Z" fill="#417EB6"/>
</g>
</g>
</g>
<g id="Clip path group_3">
<mask id="mask2_255_84" style="mask-type:luminance" maskUnits="userSpaceOnUse" x="14" y="56" width="38" height="3">
<g id="94ea6585f1">
<path id="Vector_6" d="M14.8101 56.3201H51.242V58.0801H14.8101V56.3201Z" fill="white"/>
</g>
</mask>
<g mask="url(#mask2_255_84)">
<g id="Group_3">
<path id="Vector_7" d="M51.2202 58.0092H14.8301V56.3311H51.2202V58.0092Z" fill="#417EB6"/>
</g>
</g>
</g>
<g id="Clip path group_4">
<mask id="mask3_255_84" style="mask-type:luminance" maskUnits="userSpaceOnUse" x="14" y="52" width="38" height="9">
<g id="5c96c386f9">
<path id="Vector_8" d="M14.8101 52.272H51.242V60.368H14.8101V52.272Z" fill="white"/>
</g>
</mask>
<g mask="url(#mask3_255_84)">
<g id="Group_4">
<path id="Vector_9" d="M51.2202 56.2849C51.2202 58.4691 43.074 60.2401 33.0248 60.2401C22.9763 60.2401 14.8301 58.4691 14.8301 56.2849C14.8301 54.1007 22.9763 52.3297 33.0248 52.3297C43.074 52.3297 51.2202 54.1007 51.2202 56.2849Z" fill="#659AD8"/>
</g>
</g>
</g>
<path id="Vector_10" d="M47.0486 50.0507C47.0554 50.1648 47.0589 50.2769 47.0589 50.3889C47.0589 52.4542 46.5474 54.4067 45.6378 56.144C45.6378 56.8033 39.9907 57.3375 33.0249 57.3375C32.807 57.3375 32.5891 57.3375 32.3725 57.3354C25.7106 57.3038 20.4121 56.7834 20.4121 56.144C19.5025 54.4067 18.9917 52.4542 18.9917 50.3889C18.9917 50.1119 19.0103 49.8279 19.046 49.5406C19.8298 43.1344 29.0285 34.5029 32.158 32.6501C29.0258 30.5003 18.9917 21.3744 18.9917 15.0212C18.9917 12.9553 19.5025 11.0028 20.4121 9.26544C20.4121 8.60613 26.0599 8.07263 33.0249 8.07263C39.9907 8.07263 45.6378 8.60613 45.6378 9.26544C46.5474 11.0028 47.0589 12.9553 47.0589 15.0212C47.0589 21.4864 37.163 30.8234 33.8919 32.7594C33.9689 32.8116 34.0486 32.868 34.1325 32.9292C34.1854 32.9663 34.2398 33.0055 34.2948 33.0468C34.3504 33.0887 34.4082 33.1313 34.4659 33.1739C34.5842 33.2606 34.7066 33.3561 34.8344 33.4558C34.9616 33.5562 35.095 33.6614 35.2311 33.7721C35.2992 33.8271 35.3686 33.8841 35.4408 33.9426C35.5123 33.9996 35.5838 34.0594 35.6574 34.1206C35.7303 34.1804 35.8038 34.243 35.8781 34.3056C36.5443 34.8686 37.2874 35.5279 38.0643 36.2642C38.1544 36.3488 38.2444 36.4341 38.3345 36.5207C39.1547 37.3092 40.0079 38.1741 40.8459 39.0919C40.9312 39.1875 41.0178 39.2824 41.1038 39.3779C42.0828 40.4676 43.0315 41.6233 43.8737 42.7996C43.9411 42.8945 44.0091 42.988 44.0758 43.0836C44.9496 44.3341 45.6963 45.606 46.2243 46.8428C46.2463 46.8944 46.2683 46.9446 46.2889 46.9961C46.3453 47.1336 46.3996 47.2718 46.4504 47.4079C46.4711 47.4616 46.4917 47.5166 46.5103 47.5702C46.689 48.07 46.8286 48.5636 46.9221 49.0442C46.9379 49.126 46.953 49.2057 46.9654 49.2855C47.0011 49.5069 47.0279 49.7241 47.0417 49.9386C47.0451 49.9757 47.0465 50.0136 47.0486 50.0507Z" fill="#E4F3F7"/>
<path id="Vector_11" d="M47.0589 50.389C47.0589 52.4542 46.5474 54.4067 45.6378 56.144C45.6378 56.804 39.9907 57.3375 33.0249 57.3375C32.807 57.3375 32.5891 57.3375 32.3725 57.3355C25.7099 57.3038 20.4121 56.7834 20.4121 56.144C19.5025 54.4067 18.9917 52.4542 18.9917 50.389C18.9917 50.1119 19.0103 49.828 19.046 49.5406C21.8792 53.513 25.0355 55.726 30.9618 55.6903C37.9275 55.6476 43.5753 55.1568 43.5753 54.4975C44.4849 52.7601 44.9957 50.8049 44.9957 48.7403C44.9957 43.5476 38.2926 36.5035 34.1325 32.9292C34.1848 32.967 34.2398 33.0055 34.2941 33.0468C34.3504 33.0887 34.4082 33.1313 34.4659 33.1739C34.5842 33.2626 34.7066 33.3561 34.8344 33.4558C34.9616 33.5562 35.095 33.6614 35.2311 33.7721C35.2992 33.8271 35.3686 33.8841 35.4408 33.9426C35.5123 33.9996 35.5838 34.0594 35.6574 34.1206C35.7303 34.1804 35.8038 34.243 35.8781 34.3056C36.5443 34.8686 37.2874 35.528 38.0643 36.2643C38.1544 36.3488 38.2444 36.4341 38.3345 36.5207C39.154 37.3093 40.0079 38.1748 40.8459 39.092C40.9312 39.1875 41.0178 39.2824 41.1031 39.378C42.0828 40.4676 43.0315 41.6233 43.873 42.7996C43.9411 42.8952 44.0091 42.988 44.0758 43.0836C44.9496 44.3341 45.6956 45.606 46.2236 46.8428C46.2463 46.8944 46.2683 46.9453 46.2889 46.9961C46.3453 47.1336 46.3996 47.2718 46.4504 47.408C46.4711 47.4616 46.4917 47.5166 46.5103 47.5702C46.689 48.07 46.8286 48.5636 46.9221 49.0442C46.9379 49.126 46.953 49.2058 46.9654 49.2855C47.0011 49.5069 47.0279 49.7241 47.0417 49.9386C47.0451 49.9758 47.0465 50.0136 47.0486 50.0507C47.0554 50.1648 47.0589 50.2769 47.0589 50.389Z" fill="#BAE7EE"/>
<path id="Vector_12" d="M30.1351 10.395C37.1009 10.395 42.748 10.9285 42.748 11.5871C43.6569 13.3251 44.1684 15.279 44.1684 17.3436C44.1684 22.2035 38.5769 28.6852 34.4114 32.4266C38.097 29.9255 47.0579 21.1743 47.0579 15.0219C47.0579 12.9566 46.5464 11.0034 45.6375 9.26544C45.6375 8.60682 39.9904 8.07263 33.0247 8.07263C26.0589 8.07263 20.4125 8.60682 20.4125 9.26544C20.134 9.79688 19.8934 10.3496 19.6934 10.9182C21.9621 10.6026 25.7922 10.395 30.1351 10.395Z" fill="#BAE7EE"/>
<path id="Vector_13" d="M16.9291 56.5201C16.5998 56.5201 16.333 56.254 16.333 55.9254V10.7003C16.333 10.3717 16.5998 10.1056 16.9291 10.1056C17.2584 10.1056 17.5251 10.3717 17.5251 10.7003V55.9254C17.5251 56.254 17.2584 56.5201 16.9291 56.5201Z" fill="#24265D"/>
<path id="Vector_14" d="M49.0077 56.5201C48.6791 56.5201 48.4116 56.254 48.4116 55.9254V10.7003C48.4116 10.3717 48.6791 10.1056 49.0077 10.1056C49.337 10.1056 49.6037 10.3717 49.6037 10.7003V55.9254C49.6037 56.254 49.337 56.5201 49.0077 56.5201Z" fill="#24265D"/>
<g id="Clip path group_5">
<mask id="mask4_255_84" style="mask-type:luminance" maskUnits="userSpaceOnUse" x="14" y="4" width="38" height="9">
<g id="d657c0f246">
<path id="Vector_15" d="M14.8101 4.06995H51.242V12.1439H14.8101V4.06995Z" fill="white"/>
</g>
</mask>
<g mask="url(#mask4_255_84)">
<g id="Group_5">
<path id="Vector_16" d="M51.2202 8.02716C51.2202 10.2114 43.074 11.9824 33.0248 11.9824C22.9763 11.9824 14.8301 10.2114 14.8301 8.02716C14.8301 5.84229 22.9763 4.07129 33.0248 4.07129C43.074 4.07129 51.2202 5.84229 51.2202 8.02716Z" fill="#DE3271"/>
</g>
</g>
</g>
<g id="Clip path group_6">
<mask id="mask5_255_84" style="mask-type:luminance" maskUnits="userSpaceOnUse" x="14" y="5" width="38" height="9">
<g id="8445a9a279">
<path id="Vector_17" d="M14.8101 5.63196H51.242V13.728H14.8101V5.63196Z" fill="white"/>
</g>
</mask>
<g mask="url(#mask5_255_84)">
<g id="Group_6">
<path id="Vector_18" d="M51.2202 9.67516C51.2202 11.8593 43.074 13.6304 33.0255 13.6304C22.9763 13.6304 14.8301 11.8593 14.8301 9.67516C14.8301 7.49028 22.9763 5.71997 33.0255 5.71997C43.074 5.71997 51.2202 7.49028 51.2202 9.67516Z" fill="#417EB6"/>
</g>
</g>
</g>
<g id="Clip path group_7">
<mask id="mask6_255_84" style="mask-type:luminance" maskUnits="userSpaceOnUse" x="14" y="7" width="38" height="3">
<g id="d2c5ab3c55">
<path id="Vector_19" d="M14.8101 7.92004H51.242V9.85605H14.8101V7.92004Z" fill="white"/>
</g>
</mask>
<g mask="url(#mask6_255_84)">
<g id="Group_7">
<path id="Vector_20" d="M51.2195 9.75151H14.8301V8.07263H51.2195V9.75151Z" fill="#417EB6"/>
</g>
</g>
</g>
<g id="Clip path group_8">
<mask id="mask7_255_84" style="mask-type:luminance" maskUnits="userSpaceOnUse" x="14" y="4" width="38" height="9">
<g id="1ab95d9c5e">
<path id="Vector_21" d="M14.8101 4.06995H51.242V12.1439H14.8101V4.06995Z" fill="white"/>
</g>
</mask>
<g mask="url(#mask7_255_84)">
<g id="Group_8">
<path id="Vector_22" d="M51.2202 8.02716C51.2202 10.2114 43.074 11.9824 33.0248 11.9824C22.9763 11.9824 14.8301 10.2114 14.8301 8.02716C14.8301 5.84229 22.9763 4.07129 33.0248 4.07129C43.074 4.07129 51.2202 5.84229 51.2202 8.02716Z" fill="#659AD8"/>
</g>
</g>
</g>
<path id="Vector_23" d="M42.0594 7.81074C42.0594 9.27581 36.5979 10.4631 29.8611 10.4631C23.1236 10.4631 17.6621 9.27581 17.6621 7.81074C17.6621 6.34637 23.1236 5.15906 29.8611 5.15906C36.5979 5.15906 42.0594 6.34637 42.0594 7.81074Z" fill="#80BCE9"/>
<path id="Vector_24" d="M42.4567 47.4541C41.1951 45.5463 39.5541 43.9128 37.7934 42.4635C36.9003 41.7279 35.9708 41.0369 35.0221 40.3749C34.8028 40.2216 33.0675 38.7813 32.9266 38.8679C29.9181 40.7248 26.9852 43.1249 24.724 45.8474C23.624 47.1722 22.3872 48.8683 22.3872 50.6702C22.3872 51.9758 22.7743 53.2112 23.4638 54.3105C23.4638 54.7264 27.7442 55.064 33.0249 55.064C38.3056 55.064 42.5866 54.7264 42.5866 54.3105C43.2762 53.2112 43.6633 51.9758 43.6633 50.6702C43.6633 49.509 43.0816 48.3994 42.4567 47.4541Z" fill="#FBC046"/>
<path id="Vector_25" d="M42.4568 47.4541C41.1952 45.5463 39.5541 43.9128 37.7934 42.4635C36.9004 41.7279 35.9709 41.0369 35.0221 40.3749C34.8028 40.2216 33.0676 38.7813 32.9266 38.8679C32.8943 38.8878 32.8613 38.9098 32.8283 38.9298C33.1796 39.2385 33.5165 39.563 33.8025 39.9376C34.7004 41.1119 35.3446 42.535 35.788 43.9375C36.5284 46.2798 37.0283 49.6774 35.3143 51.7159C33.654 53.6911 30.9618 54.4542 28.5067 54.8351C28.2764 54.8708 28.0433 54.9066 27.8096 54.9416C29.3104 55.0186 31.1006 55.064 33.0249 55.064C38.3056 55.064 42.5867 54.7264 42.5867 54.3105C43.2763 53.2112 43.6633 51.9758 43.6633 50.6702C43.6633 49.509 43.0817 48.3994 42.4568 47.4541Z" fill="#FCCE55"/>
<path id="Vector_26" d="M21.8324 19.6192C21.0789 18.4167 20.586 17.0005 20.487 15.5973C20.4719 15.3924 20.4657 15.1772 20.5145 14.9758C20.5626 14.7771 20.6747 14.577 20.8527 14.4609C21.0831 14.3103 21.3972 14.3137 21.653 14.421C22.2133 14.6561 22.5385 15.2817 22.7509 15.7967C22.9964 16.3927 23.1435 17.0225 23.4212 17.6069C23.7341 18.2641 24.1967 18.8389 24.5776 19.459C24.9454 20.0571 25.3428 20.8292 25.1104 21.538C25.0444 21.7367 24.9035 21.9223 24.7007 21.9979C23.853 22.3176 23.1387 21.3015 22.6836 20.7728C22.3714 20.4112 22.0861 20.0241 21.8324 19.6192Z" fill="#BAE7EE"/>
<path id="Vector_27" d="M33.742 41.2205C33.3673 39.323 33.4017 36.166 33.4237 34.7477C33.4374 33.6669 33.2772 32.3751 33.8808 31.4325C34.5278 30.4219 35.1837 29.4223 36.0857 28.6158C36.8412 27.9407 37.5473 27.2078 38.1557 26.3973C38.7525 25.6012 39.376 24.6737 39.376 23.6404C39.376 22.8243 39.143 22.0523 38.7277 21.3655C38.7277 21.1056 36.1489 20.8945 32.9685 20.8945C29.7882 20.8945 27.2093 21.1056 27.2093 21.3655C26.7948 22.0523 26.561 22.8243 26.561 23.6404C26.561 25.3653 27.8274 26.5705 29.0587 27.6018C29.793 28.2164 30.5038 28.8647 31.1205 29.599C31.709 30.2995 32.446 31.1568 32.6014 32.096C32.6062 32.1262 32.611 32.1565 32.6145 32.1867C32.7685 33.4277 32.6571 38.8637 32.2618 41.2205H33.742Z" fill="#FBC046"/>
<path id="Vector_28" d="M32.0554 28.5533C31.7941 27.9634 31.4112 27.4485 30.8199 27.1082C30.2802 26.7974 29.6828 26.6029 29.1431 26.2928C29.0201 26.222 28.9011 26.1457 28.7877 26.0611C27.9077 25.4066 27.2552 23.5559 28.5044 22.9048C29.0833 22.603 29.7144 22.6374 30.3462 22.6408C31.141 22.6449 31.9357 22.6552 32.7291 22.68C33.4723 22.7027 34.2533 22.6408 34.9841 22.8409C36.0037 23.1207 36.2876 24.1512 36.0979 25.0917C35.8442 26.3478 34.8501 27.2099 34.0801 28.1642C33.9096 28.3752 33.7301 28.5939 33.6139 28.84C33.3733 29.3508 33.3156 29.9689 33.2104 30.5195C33.1547 30.8124 33.1726 30.9437 33.0021 30.9437C33.0021 30.9437 32.7257 30.6082 32.6501 30.5649C32.6088 30.5422 32.5786 30.3346 32.5655 30.2872C32.5373 30.1868 32.5119 30.085 32.4871 29.9833C32.4404 29.7908 32.3991 29.5962 32.3476 29.4051C32.2706 29.1115 32.1757 28.8242 32.0554 28.5533Z" fill="#FCCE55"/>
<path id="Vector_29" d="M28.6447 23.9808C28.7389 23.5841 29.1452 23.2637 29.535 23.1805C29.7172 23.1413 29.9654 23.1358 30.116 23.2733C30.239 23.3861 30.206 23.5662 30.1043 23.681C29.9235 23.8859 29.7207 24.0756 29.6107 24.3307C29.5254 24.5273 29.6285 24.7872 29.6437 24.99C29.6519 25.0883 29.6547 25.2038 29.599 25.2911C29.5178 25.4176 29.3198 25.4444 29.183 25.4094C28.8929 25.3351 28.7547 25.0443 28.6887 24.7776C28.6303 24.5404 28.5938 24.2936 28.6317 24.0502C28.6351 24.0261 28.6399 24.0028 28.6447 23.9808Z" fill="#FDDE8C"/>
<path id="Vector_30" d="M41.6275 51.898C42.0902 50.9101 41.7705 49.566 41.0912 48.7458C40.7743 48.3629 40.2614 47.94 39.7183 47.9806C39.2728 48.0136 39.0418 48.4447 39.0645 48.8537C39.1037 49.5825 39.213 50.316 39.0205 51.0338C38.872 51.5872 38.2244 51.9626 37.8552 52.3607C37.6744 52.5552 37.4764 52.7917 37.4489 53.0667C37.4083 53.4669 37.7782 53.8505 38.1247 54.0038C38.8562 54.3283 39.6303 53.9467 40.2119 53.4964C40.7282 53.0963 41.2143 52.6377 41.5409 52.0651C41.5725 52.0094 41.6014 51.953 41.6275 51.898Z" fill="#FDDE8C"/>
</g>
</svg>
