<svg xmlns="http://www.w3.org/2000/svg" width="30" height="30" fill="none" viewBox="0 0 30 30"><g clip-path="url(#clip0_24_315)"><path fill="#fff" d="M29.1244 25.1475L22.5337 18.5569C23.6812 16.6987 24.375 14.5312 24.375 12.1875C24.375 5.45625 18.9187 0 12.1875 0C5.45625 0 0 5.45625 0 12.1875C0 18.9187 5.45625 24.375 12.1875 24.375C14.5312 24.375 16.6987 23.6812 18.555 22.5356L25.1475 29.1262C25.678 29.6392 26.3889 29.9232 27.1269 29.9169C27.8649 29.9106 28.5709 29.6146 29.0926 29.0926C29.6143 28.5706 29.91 27.8645 29.916 27.1266C29.9219 26.3886 29.6376 25.6778 29.1244 25.1475ZM12.1875 20.625C7.52812 20.625 3.75 16.8469 3.75 12.1875C3.75 7.52812 7.52812 3.75 12.1875 3.75C16.8469 3.75 20.625 7.52812 20.625 12.1875C20.625 16.8469 16.8469 20.625 12.1875 20.625Z"/></g><defs><clipPath id="clip0_24_315"><rect width="30" height="30" fill="#fff"/></clipPath></defs></svg>