<svg width="46" height="46" viewBox="0 0 46 46" fill="none" xmlns="http://www.w3.org/2000/svg">
<g id="tart">
<mask id="mask0_74_283" style="mask-type:luminance" maskUnits="userSpaceOnUse" x="0" y="0" width="46" height="46">
<g id="a">
<path id="Vector" d="M0 0H45.5V45.5H0V0Z" fill="white"/>
</g>
</mask>
<g mask="url(#mask0_74_283)">
<g id="Group">
<path id="Vector_2" d="M44.3025 31.1317C44.3025 37.7435 34.6529 43.1053 22.7499 43.1053C10.8469 43.1053 1.19727 37.7435 1.19727 31.1317C1.19727 24.5198 10.8469 19.158 22.7499 19.158C34.6529 19.158 44.3025 24.5198 44.3025 31.1317Z" fill="#939598"/>
<path id="Vector_3" d="M44.3025 28.7368C44.3025 35.3487 34.6529 40.7105 22.7499 40.7105C10.8469 40.7105 1.19727 35.3487 1.19727 28.7368C1.19727 22.125 10.8469 16.7631 22.7499 16.7631C34.6529 16.7631 44.3025 22.125 44.3025 28.7368Z" fill="#F1F2F2"/>
<path id="Vector_4" d="M40.4709 27.5395C40.4709 32.9755 32.5372 37.3854 22.7499 37.3854C12.9626 37.3854 5.02881 32.9755 5.02881 27.5395C5.02881 22.1022 12.9626 17.6947 22.7499 17.6947C32.5372 17.6947 40.4709 22.1022 40.4709 27.5395Z" fill="#CCD6DD"/>
<path id="Vector_5" d="M35.9207 27.5395C35.9207 31.213 30.0225 34.1921 22.7497 34.1921C15.4757 34.1921 9.57861 31.213 9.57861 27.5395C9.57861 23.866 15.4757 20.8869 22.7497 20.8869C30.0225 20.8869 35.9207 23.866 35.9207 27.5395Z" fill="#8A4B38"/>
<path id="Vector_6" d="M38.798 27.5909C38.798 32.2499 31.6126 36.0252 22.7497 36.0252C13.8856 36.0252 6.7002 32.2499 6.7002 27.5909C6.7002 22.9344 13.8856 19.1579 22.7497 19.1579C31.6126 19.1579 38.798 22.9344 38.798 27.5909Z" fill="#AD5540"/>
<path id="Vector_7" d="M38.3157 26.3421C38.3157 37.1185 7.18408 37.1185 7.18408 26.3421V16.7632H38.3157V26.3421Z" fill="#662113"/>
<path id="Vector_8" d="M38.798 15.6186C38.798 20.2763 31.6126 24.0516 22.7497 24.0516C13.8856 24.0516 6.7002 20.2763 6.7002 15.6186C6.7002 10.9608 13.8856 7.1855 22.7497 7.1855C31.6126 7.1855 38.798 10.9608 38.798 15.6186Z" fill="#AD5540"/>
<path id="Vector_9" d="M14.3683 16.7632C14.0507 16.7632 13.7461 16.6371 13.5216 16.4125C13.297 16.188 13.1709 15.8834 13.1709 15.5659V7.18429C13.1709 6.86673 13.297 6.56217 13.5216 6.33762C13.7461 6.11307 14.0507 5.98693 14.3683 5.98693C14.6858 5.98693 14.9904 6.11307 15.2149 6.33762C15.4395 6.56217 15.5656 6.86673 15.5656 7.18429V15.5659C15.5656 15.8834 15.4395 16.188 15.2149 16.4125C14.9904 16.6371 14.6858 16.7632 14.3683 16.7632ZM22.7498 20.3553C22.4323 20.3553 22.1277 20.2292 21.9032 20.0046C21.6786 19.7801 21.5525 19.4755 21.5525 19.158V10.7764C21.5525 10.4588 21.6786 10.1543 21.9032 9.92973C22.1277 9.70518 22.4323 9.57903 22.7498 9.57903C23.0674 9.57903 23.372 9.70518 23.5965 9.92973C23.8211 10.1543 23.9472 10.4588 23.9472 10.7764V19.158C23.9472 19.4755 23.8211 19.7801 23.5965 20.0046C23.372 20.2292 23.0674 20.3553 22.7498 20.3553ZM31.1314 16.7632C30.8139 16.7632 30.5093 16.6371 30.2848 16.4125C30.0602 16.188 29.9341 15.8834 29.9341 15.5659V7.18429C29.9341 6.86673 30.0602 6.56217 30.2848 6.33762C30.5093 6.11307 30.8139 5.98693 31.1314 5.98693C31.449 5.98693 31.7535 6.11307 31.9781 6.33762C32.2026 6.56217 32.3288 6.86673 32.3288 7.18429V15.5659C32.3288 15.8834 32.2026 16.188 31.9781 16.4125C31.7535 16.6371 31.449 16.7632 31.1314 16.7632Z" fill="#88C9F9"/>
<path id="Vector_10" d="M31.1312 8.98028C29.8596 8.98028 28.861 8.39836 28.4575 7.4249C28.1079 6.57956 27.9331 4.74519 30.7074 1.97089C30.82 1.85887 30.9724 1.79599 31.1312 1.79599C31.2901 1.79599 31.4425 1.85887 31.5551 1.97089C34.3294 4.74519 34.1546 6.57956 33.805 7.4249C33.4014 8.39836 32.4028 8.98028 31.1312 8.98028ZM22.7497 12.5724C21.478 12.5724 20.4794 11.9905 20.0759 11.017C19.7251 10.1717 19.5527 8.3373 22.3258 5.56299C22.4384 5.45098 22.5908 5.3881 22.7497 5.3881C22.9085 5.3881 23.0609 5.45098 23.1735 5.56299C25.9478 8.3373 25.773 10.1717 25.4234 11.017C25.0199 11.9905 24.0213 12.5724 22.7497 12.5724ZM14.3681 8.98028C13.0965 8.98028 12.0979 8.39836 11.6943 7.4249C11.3435 6.57956 11.1711 4.74519 13.9442 1.97089C14.0568 1.85887 14.2092 1.79599 14.3681 1.79599C14.5269 1.79599 14.6793 1.85887 14.7919 1.97089C17.565 4.74519 17.3926 6.57956 17.0418 7.4249C16.6383 8.39836 15.6397 8.98028 14.3681 8.98028Z" fill="#FFAC33"/>
</g>
</g>
</g>
</svg>
