<svg xmlns="http://www.w3.org/2000/svg" width="27" height="29" fill="none" viewBox="0 0 27 29"><path fill="#fff" d="M10.15 23.2C10.5346 23.2 10.9034 23.0472 11.1753 22.7753C11.4472 22.5034 11.6 22.1346 11.6 21.75V13.05C11.6 12.6654 11.4472 12.2966 11.1753 12.0247C10.9034 11.7528 10.5346 11.6 10.15 11.6C9.76544 11.6 9.39662 11.7528 9.12469 12.0247C8.85277 12.2966 8.7 12.6654 8.7 13.05V21.75C8.7 22.1346 8.85277 22.5034 9.12469 22.7753C9.39662 23.0472 9.76544 23.2 10.15 23.2ZM24.65 5.8H18.85V4.35C18.85 3.19631 18.3917 2.08987 17.5759 1.27409C16.7601 0.458302 15.6537 0 14.5 0H11.6C10.4463 0 9.33987 0.458302 8.52408 1.27409C7.7083 2.08987 7.25 3.19631 7.25 4.35V5.8H1.45C1.06544 5.8 0.696623 5.95277 0.424695 6.2247C0.152767 6.49662 0 6.86544 0 7.25C0 7.63456 0.152767 8.00338 0.424695 8.2753C0.696623 8.54723 1.06544 8.7 1.45 8.7H2.9V24.65C2.9 25.8037 3.3583 26.9101 4.17409 27.7259C4.98987 28.5417 6.09631 29 7.25 29H18.85C20.0037 29 21.1101 28.5417 21.9259 27.7259C22.7417 26.9101 23.2 25.8037 23.2 24.65V8.7H24.65C25.0346 8.7 25.4034 8.54723 25.6753 8.2753C25.9472 8.00338 26.1 7.63456 26.1 7.25C26.1 6.86544 25.9472 6.49662 25.6753 6.2247C25.4034 5.95277 25.0346 5.8 24.65 5.8ZM10.15 4.35C10.15 3.96544 10.3028 3.59662 10.5747 3.3247C10.8466 3.05277 11.2154 2.9 11.6 2.9H14.5C14.8846 2.9 15.2534 3.05277 15.5253 3.3247C15.7972 3.59662 15.95 3.96544 15.95 4.35V5.8H10.15V4.35ZM20.3 24.65C20.3 25.0346 20.1472 25.4034 19.8753 25.6753C19.6034 25.9472 19.2346 26.1 18.85 26.1H7.25C6.86544 26.1 6.49662 25.9472 6.22469 25.6753C5.95277 25.4034 5.8 25.0346 5.8 24.65V8.7H20.3V24.65ZM15.95 23.2C16.3346 23.2 16.7034 23.0472 16.9753 22.7753C17.2472 22.5034 17.4 22.1346 17.4 21.75V13.05C17.4 12.6654 17.2472 12.2966 16.9753 12.0247C16.7034 11.7528 16.3346 11.6 15.95 11.6C15.5654 11.6 15.1966 11.7528 14.9247 12.0247C14.6528 12.2966 14.5 12.6654 14.5 13.05V21.75C14.5 22.1346 14.6528 22.5034 14.9247 22.7753C15.1966 23.0472 15.5654 23.2 15.95 23.2Z"/></svg>