<svg xmlns="http://www.w3.org/2000/svg" xmlns:xlink="http://www.w3.org/1999/xlink" width="1080" height="1080" preserveAspectRatio="xMidYMid meet" version="1.0" viewBox="0 0 810 810" zoomAndPan="magnify"><path fill="#ee3e54" fill-opacity="1" fill-rule="nonzero" d="M 41.539062 186.921875 C 41.539062 187.601562 41.503906 188.28125 41.4375 188.957031 C 41.371094 189.636719 41.273438 190.308594 41.140625 190.976562 C 41.007812 191.640625 40.839844 192.300781 40.644531 192.953125 C 40.445312 193.601562 40.21875 194.242188 39.957031 194.871094 C 39.695312 195.5 39.40625 196.113281 39.085938 196.714844 C 38.765625 197.3125 38.417969 197.894531 38.039062 198.460938 C 37.660156 199.027344 37.253906 199.574219 36.824219 200.097656 C 36.390625 200.625 35.9375 201.128906 35.457031 201.609375 C 34.972656 202.089844 34.472656 202.546875 33.945312 202.976562 C 33.417969 203.410156 32.875 203.8125 32.308594 204.191406 C 31.742188 204.570312 31.160156 204.917969 30.558594 205.238281 C 29.960938 205.5625 29.347656 205.851562 28.71875 206.113281 C 28.089844 206.371094 27.449219 206.601562 26.796875 206.796875 C 26.148438 206.996094 25.488281 207.160156 24.820312 207.292969 C 24.152344 207.425781 23.480469 207.527344 22.804688 207.59375 C 22.128906 207.660156 21.449219 207.691406 20.769531 207.691406 C 20.089844 207.691406 19.410156 207.660156 18.734375 207.59375 C 18.054688 207.527344 17.382812 207.425781 16.71875 207.292969 C 16.050781 207.160156 15.390625 206.996094 14.742188 206.796875 C 14.089844 206.601562 13.449219 206.371094 12.820312 206.113281 C 12.191406 205.851562 11.578125 205.5625 10.980469 205.238281 C 10.378906 204.917969 9.796875 204.570312 9.230469 204.191406 C 8.664062 203.8125 8.121094 203.410156 7.59375 202.976562 C 7.066406 202.546875 6.5625 202.089844 6.082031 201.609375 C 5.601562 201.128906 5.144531 200.625 4.714844 200.097656 C 4.28125 199.574219 3.878906 199.027344 3.5 198.460938 C 3.121094 197.894531 2.773438 197.3125 2.453125 196.714844 C 2.132812 196.113281 1.839844 195.5 1.582031 194.871094 C 1.320312 194.242188 1.089844 193.601562 0.894531 192.953125 C 0.695312 192.300781 0.53125 191.640625 0.398438 190.976562 C 0.265625 190.308594 0.167969 189.636719 0.101562 188.957031 C 0.0351562 188.28125 0 187.601562 0 186.921875 C 0 186.242188 0.0351562 185.5625 0.101562 184.886719 C 0.167969 184.210938 0.265625 183.539062 0.398438 182.871094 C 0.53125 182.203125 0.695312 181.546875 0.894531 180.894531 C 1.089844 180.242188 1.320312 179.601562 1.582031 178.976562 C 1.839844 178.347656 2.132812 177.730469 2.453125 177.132812 C 2.773438 176.53125 3.121094 175.949219 3.5 175.382812 C 3.878906 174.820312 4.28125 174.273438 4.714844 173.746094 C 5.144531 173.222656 5.601562 172.71875 6.082031 172.238281 C 6.5625 171.757812 7.066406 171.300781 7.59375 170.867188 C 8.121094 170.4375 8.664062 170.03125 9.230469 169.652344 C 9.796875 169.277344 10.378906 168.925781 10.980469 168.605469 C 11.578125 168.285156 12.191406 167.996094 12.820312 167.734375 C 13.449219 167.472656 14.089844 167.246094 14.742188 167.046875 C 15.390625 166.851562 16.050781 166.6875 16.71875 166.554688 C 17.382812 166.421875 18.054688 166.320312 18.734375 166.253906 C 19.410156 166.1875 20.089844 166.152344 20.769531 166.152344 C 21.449219 166.152344 22.128906 166.1875 22.804688 166.253906 C 23.480469 166.320312 24.152344 166.421875 24.820312 166.554688 C 25.488281 166.6875 26.148438 166.851562 26.796875 167.046875 C 27.449219 167.246094 28.089844 167.472656 28.71875 167.734375 C 29.347656 167.996094 29.960938 168.285156 30.558594 168.605469 C 31.160156 168.925781 31.742188 169.277344 32.308594 169.652344 C 32.875 170.03125 33.417969 170.4375 33.945312 170.867188 C 34.472656 171.300781 34.972656 171.757812 35.457031 172.238281 C 35.9375 172.71875 36.390625 173.222656 36.824219 173.746094 C 37.253906 174.273438 37.660156 174.820312 38.039062 175.382812 C 38.417969 175.949219 38.765625 176.53125 39.085938 177.132812 C 39.40625 177.730469 39.695312 178.347656 39.957031 178.976562 C 40.21875 179.601562 40.445312 180.242188 40.644531 180.894531 C 40.839844 181.546875 41.007812 182.203125 41.140625 182.871094 C 41.273438 183.539062 41.371094 184.210938 41.4375 184.886719 C 41.503906 185.5625 41.539062 186.242188 41.539062 186.921875 Z M 41.539062 186.921875"/><path fill="#f1bc19" fill-opacity="1" fill-rule="nonzero" d="M 695.769531 20.769531 C 695.769531 21.449219 695.703125 22.125 695.570312 22.796875 C 695.4375 23.464844 695.238281 24.113281 694.980469 24.742188 C 694.71875 25.375 694.398438 25.972656 694.019531 26.539062 C 693.640625 27.105469 693.210938 27.628906 692.726562 28.113281 C 692.246094 28.59375 691.722656 29.023438 691.152344 29.402344 C 690.585938 29.78125 689.988281 30.101562 689.359375 30.363281 C 688.730469 30.625 688.078125 30.820312 687.410156 30.953125 C 686.742188 31.085938 686.066406 31.152344 685.382812 31.152344 C 684.703125 31.152344 684.027344 31.085938 683.359375 30.953125 C 682.691406 30.820312 682.039062 30.625 681.410156 30.363281 C 680.78125 30.101562 680.183594 29.78125 679.613281 29.402344 C 679.046875 29.023438 678.523438 28.59375 678.042969 28.113281 C 677.558594 27.628906 677.128906 27.105469 676.75 26.539062 C 676.371094 25.972656 676.050781 25.375 675.789062 24.742188 C 675.53125 24.113281 675.332031 23.464844 675.199219 22.796875 C 675.066406 22.125 675 21.449219 675 20.769531 C 675 20.085938 675.066406 19.410156 675.199219 18.742188 C 675.332031 18.074219 675.53125 17.425781 675.789062 16.796875 C 676.050781 16.164062 676.371094 15.566406 676.75 15 C 677.128906 14.433594 677.558594 13.910156 678.042969 13.425781 C 678.523438 12.945312 679.046875 12.511719 679.613281 12.132812 C 680.183594 11.757812 680.78125 11.4375 681.410156 11.175781 C 682.039062 10.914062 682.691406 10.71875 683.359375 10.585938 C 684.027344 10.449219 684.703125 10.382812 685.382812 10.382812 C 686.066406 10.382812 686.742188 10.449219 687.410156 10.585938 C 688.078125 10.71875 688.730469 10.914062 689.359375 11.175781 C 689.988281 11.4375 690.585938 11.757812 691.152344 12.132812 C 691.722656 12.511719 692.246094 12.945312 692.726562 13.425781 C 693.210938 13.910156 693.640625 14.433594 694.019531 15 C 694.398438 15.566406 694.71875 16.164062 694.980469 16.796875 C 695.238281 17.425781 695.4375 18.074219 695.570312 18.742188 C 695.703125 19.410156 695.769531 20.085938 695.769531 20.769531 Z M 695.769531 20.769531"/><path fill="#fce0a2" fill-opacity="1" fill-rule="nonzero" d="M 789.230469 405 C 789.230469 411.289062 789.078125 417.574219 788.769531 423.851562 C 788.460938 430.132812 787.996094 436.402344 787.378906 442.660156 C 786.765625 448.917969 785.996094 455.15625 785.070312 461.378906 C 784.148438 467.597656 783.074219 473.792969 781.847656 479.960938 C 780.621094 486.128906 779.242188 492.261719 777.714844 498.359375 C 776.1875 504.460938 774.511719 510.519531 772.6875 516.535156 C 770.859375 522.554688 768.886719 528.523438 766.769531 534.441406 C 764.652344 540.363281 762.390625 546.230469 759.984375 552.039062 C 757.578125 557.847656 755.027344 563.59375 752.339844 569.28125 C 749.652344 574.964844 746.824219 580.578125 743.859375 586.125 C 740.898438 591.671875 737.796875 597.140625 734.566406 602.535156 C 731.332031 607.925781 727.96875 613.238281 724.476562 618.46875 C 720.984375 623.695312 717.363281 628.835938 713.617188 633.886719 C 709.871094 638.9375 706.003906 643.890625 702.015625 648.753906 C 698.023438 653.613281 693.917969 658.375 689.695312 663.035156 C 685.472656 667.691406 681.136719 672.246094 676.691406 676.691406 C 672.246094 681.136719 667.691406 685.472656 663.035156 689.695312 C 658.375 693.917969 653.613281 698.023438 648.753906 702.015625 C 643.890625 706.003906 638.9375 709.871094 633.886719 713.617188 C 628.835938 717.363281 623.695312 720.984375 618.46875 724.476562 C 613.238281 727.96875 607.925781 731.332031 602.535156 734.566406 C 597.140625 737.796875 591.671875 740.898438 586.125 743.859375 C 580.578125 746.824219 574.964844 749.652344 569.28125 752.339844 C 563.59375 755.027344 557.847656 757.578125 552.039062 759.984375 C 546.230469 762.390625 540.363281 764.652344 534.445312 766.769531 C 528.523438 768.886719 522.554688 770.859375 516.535156 772.6875 C 510.519531 774.511719 504.460938 776.1875 498.359375 777.714844 C 492.261719 779.242188 486.128906 780.621094 479.960938 781.847656 C 473.792969 783.074219 467.597656 784.148438 461.378906 785.070312 C 455.15625 785.996094 448.917969 786.765625 442.660156 787.378906 C 436.402344 787.996094 430.132812 788.460938 423.851562 788.769531 C 417.574219 789.078125 411.289062 789.230469 405 789.230469 C 398.710938 789.230469 392.425781 789.078125 386.148438 788.769531 C 379.867188 788.460938 373.597656 787.996094 367.339844 787.378906 C 361.082031 786.765625 354.839844 785.996094 348.621094 785.070312 C 342.402344 784.148438 336.207031 783.074219 330.039062 781.847656 C 323.871094 780.621094 317.738281 779.242188 311.640625 777.714844 C 305.539062 776.1875 299.480469 774.511719 293.464844 772.6875 C 287.445312 770.859375 281.476562 768.886719 275.554688 766.769531 C 269.636719 764.652344 263.769531 762.390625 257.960938 759.984375 C 252.152344 757.578125 246.40625 755.027344 240.71875 752.339844 C 235.035156 749.652344 229.421875 746.824219 223.875 743.859375 C 218.328125 740.898438 212.859375 737.796875 207.464844 734.566406 C 202.070312 731.332031 196.761719 727.96875 191.53125 724.476562 C 186.304688 720.984375 181.164062 717.363281 176.113281 713.617188 C 171.0625 709.871094 166.109375 706.003906 161.246094 702.015625 C 156.386719 698.023438 151.625 693.917969 146.964844 689.695312 C 142.308594 685.472656 137.753906 681.136719 133.308594 676.691406 C 128.863281 672.246094 124.527344 667.691406 120.304688 663.035156 C 116.082031 658.375 111.976562 653.613281 107.984375 648.753906 C 103.996094 643.890625 100.128906 638.9375 96.382812 633.886719 C 92.636719 628.835938 89.015625 623.695312 85.523438 618.46875 C 82.03125 613.238281 78.667969 607.925781 75.433594 602.535156 C 72.203125 597.140625 69.101562 591.671875 66.140625 586.125 C 63.175781 580.578125 60.347656 574.964844 57.660156 569.28125 C 54.972656 563.59375 52.421875 557.847656 50.015625 552.039062 C 47.609375 546.230469 45.347656 540.363281 43.230469 534.445312 C 41.113281 528.523438 39.140625 522.554688 37.3125 516.535156 C 35.488281 510.519531 33.8125 504.460938 32.285156 498.359375 C 30.757812 492.261719 29.378906 486.128906 28.152344 479.960938 C 26.925781 473.792969 25.851562 467.597656 24.929688 461.378906 C 24.003906 455.15625 23.234375 448.917969 22.621094 442.660156 C 22.003906 436.402344 21.539062 430.132812 21.230469 423.851562 C 20.921875 417.574219 20.769531 411.289062 20.769531 405 C 20.769531 398.710938 20.921875 392.425781 21.230469 386.148438 C 21.539062 379.867188 22.003906 373.597656 22.621094 367.339844 C 23.234375 361.082031 24.003906 354.839844 24.929688 348.621094 C 25.851562 342.402344 26.925781 336.207031 28.152344 330.039062 C 29.378906 323.871094 30.757812 317.738281 32.285156 311.640625 C 33.8125 305.539062 35.488281 299.480469 37.3125 293.464844 C 39.140625 287.445312 41.113281 281.476562 43.230469 275.554688 C 45.347656 269.636719 47.609375 263.769531 50.015625 257.960938 C 52.421875 252.152344 54.972656 246.40625 57.660156 240.71875 C 60.347656 235.035156 63.175781 229.421875 66.140625 223.875 C 69.101562 218.328125 72.203125 212.859375 75.433594 207.464844 C 78.667969 202.074219 82.03125 196.761719 85.523438 191.53125 C 89.015625 186.304688 92.636719 181.164062 96.382812 176.113281 C 100.128906 171.0625 103.996094 166.109375 107.984375 161.246094 C 111.976562 156.386719 116.082031 151.625 120.304688 146.964844 C 124.527344 142.308594 128.863281 137.753906 133.308594 133.308594 C 137.753906 128.863281 142.308594 124.527344 146.964844 120.304688 C 151.625 116.082031 156.386719 111.976562 161.246094 107.984375 C 166.109375 103.996094 171.0625 100.128906 176.113281 96.382812 C 181.164062 92.636719 186.304688 89.015625 191.53125 85.523438 C 196.761719 82.03125 202.074219 78.667969 207.464844 75.433594 C 212.859375 72.203125 218.328125 69.101562 223.875 66.140625 C 229.421875 63.175781 235.035156 60.347656 240.71875 57.660156 C 246.40625 54.972656 252.152344 52.421875 257.960938 50.015625 C 263.769531 47.609375 269.636719 45.347656 275.554688 43.230469 C 281.476562 41.113281 287.445312 39.140625 293.464844 37.3125 C 299.480469 35.488281 305.539062 33.8125 311.640625 32.285156 C 317.738281 30.757812 323.871094 29.378906 330.039062 28.152344 C 336.207031 26.925781 342.402344 25.851562 348.621094 24.929688 C 354.839844 24.003906 361.082031 23.234375 367.339844 22.621094 C 373.597656 22.003906 379.867188 21.539062 386.148438 21.230469 C 392.425781 20.921875 398.710938 20.769531 405 20.769531 C 411.289062 20.769531 417.574219 20.921875 423.851562 21.230469 C 430.132812 21.539062 436.402344 22.003906 442.660156 22.621094 C 448.917969 23.234375 455.15625 24.003906 461.378906 24.929688 C 467.597656 25.851562 473.792969 26.925781 479.960938 28.152344 C 486.128906 29.378906 492.261719 30.757812 498.359375 32.285156 C 504.460938 33.8125 510.519531 35.488281 516.535156 37.3125 C 522.554688 39.140625 528.523438 41.113281 534.441406 43.230469 C 540.363281 45.347656 546.230469 47.609375 552.039062 50.015625 C 557.847656 52.421875 563.59375 54.972656 569.28125 57.660156 C 574.964844 60.347656 580.578125 63.175781 586.125 66.140625 C 591.671875 69.101562 597.140625 72.203125 602.535156 75.433594 C 607.925781 78.667969 613.238281 82.03125 618.46875 85.523438 C 623.695312 89.015625 628.835938 92.636719 633.886719 96.382812 C 638.9375 100.128906 643.890625 103.996094 648.753906 107.984375 C 653.613281 111.976562 658.375 116.082031 663.035156 120.304688 C 667.691406 124.527344 672.246094 128.863281 676.691406 133.308594 C 681.136719 137.753906 685.472656 142.308594 689.695312 146.964844 C 693.917969 151.625 698.023438 156.386719 702.015625 161.246094 C 706.003906 166.109375 709.871094 171.0625 713.617188 176.113281 C 717.363281 181.164062 720.984375 186.304688 724.476562 191.53125 C 727.96875 196.761719 731.332031 202.074219 734.566406 207.464844 C 737.796875 212.859375 740.898438 218.328125 743.859375 223.875 C 746.824219 229.421875 749.652344 235.035156 752.339844 240.71875 C 755.027344 246.40625 757.578125 252.152344 759.984375 257.960938 C 762.390625 263.769531 764.652344 269.636719 766.769531 275.554688 C 768.886719 281.476562 770.859375 287.445312 772.6875 293.464844 C 774.511719 299.480469 776.1875 305.539062 777.714844 311.640625 C 779.242188 317.738281 780.621094 323.871094 781.847656 330.039062 C 783.074219 336.207031 784.148438 342.402344 785.070312 348.621094 C 785.996094 354.839844 786.765625 361.082031 787.378906 367.339844 C 787.996094 373.597656 788.460938 379.867188 788.769531 386.148438 C 789.078125 392.425781 789.230469 398.710938 789.230469 405 Z M 789.230469 405"/><path fill="#f1bc19" fill-opacity="1" fill-rule="nonzero" d="M 789.230469 41.539062 C 789.230469 42.898438 789.164062 44.257812 789.03125 45.609375 C 788.898438 46.964844 788.699219 48.308594 788.433594 49.640625 C 788.167969 50.976562 787.835938 52.292969 787.441406 53.597656 C 787.046875 54.898438 786.589844 56.175781 786.070312 57.433594 C 785.546875 58.691406 784.96875 59.917969 784.324219 61.121094 C 783.683594 62.320312 782.984375 63.484375 782.230469 64.617188 C 781.472656 65.746094 780.664062 66.839844 779.800781 67.890625 C 778.9375 68.941406 778.027344 69.949219 777.0625 70.910156 C 776.101562 71.871094 775.09375 72.785156 774.042969 73.648438 C 772.992188 74.511719 771.902344 75.320312 770.769531 76.078125 C 769.636719 76.832031 768.472656 77.53125 767.273438 78.171875 C 766.074219 78.8125 764.84375 79.394531 763.589844 79.914062 C 762.332031 80.4375 761.050781 80.894531 759.75 81.289062 C 758.449219 81.683594 757.128906 82.011719 755.796875 82.277344 C 754.460938 82.542969 753.117188 82.742188 751.765625 82.875 C 750.410156 83.011719 749.054688 83.078125 747.691406 83.078125 C 746.332031 83.078125 744.976562 83.011719 743.621094 82.875 C 742.265625 82.742188 740.921875 82.542969 739.589844 82.277344 C 738.253906 82.011719 736.9375 81.683594 735.632812 81.289062 C 734.332031 80.894531 733.054688 80.4375 731.796875 79.914062 C 730.539062 79.394531 729.3125 78.8125 728.109375 78.171875 C 726.910156 77.53125 725.746094 76.832031 724.613281 76.078125 C 723.484375 75.320312 722.390625 74.511719 721.339844 73.648438 C 720.289062 72.785156 719.28125 71.871094 718.320312 70.910156 C 717.359375 69.949219 716.445312 68.941406 715.582031 67.890625 C 714.71875 66.839844 713.910156 65.746094 713.15625 64.617188 C 712.398438 63.484375 711.699219 62.320312 711.058594 61.121094 C 710.417969 59.917969 709.835938 58.691406 709.316406 57.433594 C 708.796875 56.175781 708.335938 54.898438 707.941406 53.597656 C 707.546875 52.292969 707.21875 50.976562 706.953125 49.640625 C 706.6875 48.308594 706.488281 46.964844 706.355469 45.609375 C 706.21875 44.257812 706.152344 42.898438 706.152344 41.539062 C 706.152344 40.179688 706.21875 38.820312 706.355469 37.46875 C 706.488281 36.113281 706.6875 34.769531 706.953125 33.433594 C 707.21875 32.101562 707.546875 30.78125 707.941406 29.480469 C 708.335938 28.179688 708.796875 26.898438 709.316406 25.640625 C 709.835938 24.386719 710.417969 23.15625 711.058594 21.957031 C 711.699219 20.757812 712.398438 19.59375 713.15625 18.460938 C 713.910156 17.328125 714.71875 16.238281 715.582031 15.1875 C 716.445312 14.136719 717.359375 13.128906 718.320312 12.167969 C 719.28125 11.203125 720.289062 10.292969 721.339844 9.429688 C 722.390625 8.566406 723.484375 7.757812 724.613281 7 C 725.746094 6.246094 726.910156 5.546875 728.109375 4.90625 C 729.3125 4.261719 730.539062 3.683594 731.796875 3.160156 C 733.054688 2.640625 734.332031 2.183594 735.632812 1.789062 C 736.9375 1.394531 738.253906 1.0625 739.589844 0.796875 C 740.921875 0.53125 742.265625 0.332031 743.621094 0.199219 C 744.976562 0.0664062 746.332031 0 747.691406 0 C 749.054688 0 750.410156 0.0664062 751.765625 0.199219 C 753.117188 0.332031 754.460938 0.53125 755.796875 0.796875 C 757.128906 1.0625 758.449219 1.394531 759.75 1.789062 C 761.050781 2.183594 762.332031 2.640625 763.589844 3.160156 C 764.84375 3.683594 766.074219 4.261719 767.273438 4.90625 C 768.472656 5.546875 769.636719 6.246094 770.769531 7 C 771.902344 7.757812 772.992188 8.566406 774.042969 9.429688 C 775.09375 10.292969 776.101562 11.203125 777.0625 12.167969 C 778.027344 13.128906 778.9375 14.136719 779.800781 15.1875 C 780.664062 16.238281 781.472656 17.328125 782.230469 18.460938 C 782.984375 19.59375 783.683594 20.757812 784.324219 21.957031 C 784.96875 23.15625 785.546875 24.386719 786.070312 25.640625 C 786.589844 26.898438 787.046875 28.179688 787.441406 29.480469 C 787.835938 30.78125 788.167969 32.101562 788.433594 33.433594 C 788.699219 34.769531 788.898438 36.113281 789.03125 37.46875 C 789.164062 38.820312 789.230469 40.179688 789.230469 41.539062 Z M 789.230469 41.539062"/><path fill="#ee3e54" fill-opacity="1" fill-rule="nonzero" d="M 810 135 C 810 135.679688 809.964844 136.359375 809.898438 137.035156 C 809.832031 137.710938 809.734375 138.386719 809.601562 139.050781 C 809.46875 139.71875 809.304688 140.378906 809.105469 141.027344 C 808.90625 141.679688 808.679688 142.320312 808.417969 142.949219 C 808.160156 143.578125 807.867188 144.191406 807.546875 144.789062 C 807.226562 145.390625 806.878906 145.972656 806.5 146.539062 C 806.121094 147.105469 805.71875 147.648438 805.285156 148.175781 C 804.855469 148.703125 804.398438 149.203125 803.917969 149.6875 C 803.4375 150.167969 802.933594 150.625 802.40625 151.054688 C 801.878906 151.488281 801.335938 151.890625 800.769531 152.269531 C 800.203125 152.648438 799.621094 152.996094 799.019531 153.316406 C 798.421875 153.636719 797.808594 153.929688 797.179688 154.1875 C 796.550781 154.449219 795.910156 154.675781 795.257812 154.875 C 794.609375 155.074219 793.949219 155.238281 793.28125 155.371094 C 792.617188 155.503906 791.945312 155.601562 791.265625 155.667969 C 790.589844 155.734375 789.910156 155.769531 789.230469 155.769531 C 788.550781 155.769531 787.871094 155.734375 787.195312 155.667969 C 786.519531 155.601562 785.847656 155.503906 785.179688 155.371094 C 784.511719 155.238281 783.851562 155.074219 783.203125 154.875 C 782.550781 154.675781 781.910156 154.449219 781.28125 154.1875 C 780.652344 153.929688 780.039062 153.636719 779.441406 153.316406 C 778.839844 152.996094 778.257812 152.648438 777.691406 152.269531 C 777.125 151.890625 776.582031 151.488281 776.054688 151.054688 C 775.527344 150.625 775.027344 150.167969 774.542969 149.6875 C 774.0625 149.203125 773.609375 148.703125 773.175781 148.175781 C 772.746094 147.648438 772.339844 147.105469 771.960938 146.539062 C 771.582031 145.972656 771.234375 145.390625 770.914062 144.789062 C 770.59375 144.191406 770.304688 143.578125 770.042969 142.949219 C 769.78125 142.320312 769.554688 141.679688 769.355469 141.027344 C 769.160156 140.378906 768.992188 139.71875 768.859375 139.050781 C 768.726562 138.386719 768.628906 137.710938 768.5625 137.035156 C 768.496094 136.359375 768.460938 135.679688 768.460938 135 C 768.460938 134.320312 768.496094 133.640625 768.5625 132.964844 C 768.628906 132.289062 768.726562 131.617188 768.859375 130.949219 C 768.992188 130.28125 769.160156 129.621094 769.355469 128.972656 C 769.554688 128.320312 769.78125 127.679688 770.042969 127.050781 C 770.304688 126.421875 770.59375 125.808594 770.914062 125.210938 C 771.234375 124.609375 771.582031 124.027344 771.960938 123.460938 C 772.339844 122.894531 772.746094 122.351562 773.175781 121.824219 C 773.609375 121.296875 774.0625 120.796875 774.542969 120.3125 C 775.027344 119.832031 775.527344 119.375 776.054688 118.945312 C 776.582031 118.511719 777.125 118.109375 777.691406 117.730469 C 778.257812 117.351562 778.839844 117.003906 779.441406 116.683594 C 780.039062 116.363281 780.652344 116.070312 781.28125 115.8125 C 781.910156 115.550781 782.550781 115.324219 783.203125 115.125 C 783.851562 114.925781 784.511719 114.761719 785.179688 114.628906 C 785.847656 114.496094 786.519531 114.398438 787.195312 114.332031 C 787.871094 114.265625 788.550781 114.230469 789.230469 114.230469 C 789.910156 114.230469 790.589844 114.265625 791.265625 114.332031 C 791.945312 114.398438 792.617188 114.496094 793.28125 114.628906 C 793.949219 114.761719 794.609375 114.925781 795.257812 115.125 C 795.910156 115.324219 796.550781 115.550781 797.179688 115.8125 C 797.808594 116.070312 798.421875 116.363281 799.019531 116.683594 C 799.621094 117.003906 800.203125 117.351562 800.769531 117.730469 C 801.335938 118.109375 801.878906 118.511719 802.40625 118.945312 C 802.933594 119.375 803.4375 119.832031 803.917969 120.3125 C 804.398438 120.796875 804.855469 121.296875 805.285156 121.824219 C 805.71875 122.351562 806.121094 122.894531 806.5 123.460938 C 806.878906 124.027344 807.226562 124.609375 807.546875 125.210938 C 807.867188 125.808594 808.160156 126.421875 808.417969 127.050781 C 808.679688 127.679688 808.90625 128.320312 809.105469 128.972656 C 809.304688 129.621094 809.46875 130.28125 809.601562 130.949219 C 809.734375 131.617188 809.832031 132.289062 809.898438 132.964844 C 809.964844 133.640625 810 134.320312 810 135 Z M 810 135"/><path fill="#fbcd59" fill-opacity="1" fill-rule="nonzero" d="M 747.691406 675 C 747.691406 675.679688 747.660156 676.359375 747.59375 677.035156 C 747.527344 677.710938 747.425781 678.382812 747.292969 679.050781 C 747.160156 679.71875 746.996094 680.378906 746.796875 681.027344 C 746.601562 681.679688 746.371094 682.320312 746.113281 682.949219 C 745.851562 683.578125 745.5625 684.191406 745.238281 684.789062 C 744.917969 685.390625 744.570312 685.972656 744.191406 686.539062 C 743.8125 687.105469 743.410156 687.648438 742.976562 688.175781 C 742.546875 688.703125 742.089844 689.203125 741.609375 689.6875 C 741.128906 690.167969 740.625 690.625 740.097656 691.054688 C 739.574219 691.488281 739.027344 691.890625 738.460938 692.269531 C 737.894531 692.648438 737.3125 692.996094 736.714844 693.316406 C 736.113281 693.636719 735.5 693.929688 734.871094 694.1875 C 734.242188 694.449219 733.601562 694.675781 732.953125 694.875 C 732.300781 695.074219 731.640625 695.238281 730.976562 695.371094 C 730.308594 695.503906 729.636719 695.601562 728.957031 695.667969 C 728.28125 695.734375 727.601562 695.769531 726.921875 695.769531 C 726.242188 695.769531 725.5625 695.734375 724.886719 695.667969 C 724.210938 695.601562 723.539062 695.503906 722.871094 695.371094 C 722.203125 695.238281 721.546875 695.074219 720.894531 694.875 C 720.242188 694.675781 719.601562 694.449219 718.976562 694.1875 C 718.347656 693.929688 717.734375 693.636719 717.132812 693.316406 C 716.53125 692.996094 715.949219 692.648438 715.382812 692.269531 C 714.820312 691.890625 714.273438 691.488281 713.746094 691.054688 C 713.222656 690.625 712.71875 690.167969 712.238281 689.6875 C 711.757812 689.203125 711.300781 688.703125 710.867188 688.175781 C 710.4375 687.648438 710.03125 687.105469 709.652344 686.539062 C 709.277344 685.972656 708.925781 685.390625 708.605469 684.789062 C 708.285156 684.191406 707.996094 683.578125 707.734375 682.949219 C 707.472656 682.320312 707.246094 681.679688 707.046875 681.027344 C 706.851562 680.378906 706.6875 679.71875 706.554688 679.050781 C 706.421875 678.382812 706.320312 677.710938 706.253906 677.035156 C 706.1875 676.359375 706.152344 675.679688 706.152344 675 C 706.152344 674.320312 706.1875 673.640625 706.253906 672.964844 C 706.320312 672.289062 706.421875 671.613281 706.554688 670.949219 C 706.6875 670.28125 706.851562 669.621094 707.046875 668.972656 C 707.246094 668.320312 707.472656 667.679688 707.734375 667.050781 C 707.996094 666.421875 708.285156 665.808594 708.605469 665.210938 C 708.925781 664.609375 709.277344 664.027344 709.652344 663.460938 C 710.03125 662.894531 710.4375 662.351562 710.867188 661.824219 C 711.300781 661.296875 711.757812 660.792969 712.238281 660.3125 C 712.71875 659.832031 713.222656 659.375 713.746094 658.945312 C 714.273438 658.511719 714.820312 658.109375 715.382812 657.730469 C 715.949219 657.351562 716.53125 657.003906 717.132812 656.683594 C 717.734375 656.363281 718.347656 656.070312 718.976562 655.8125 C 719.601562 655.550781 720.242188 655.324219 720.894531 655.125 C 721.546875 654.925781 722.203125 654.761719 722.871094 654.628906 C 723.539062 654.496094 724.210938 654.398438 724.886719 654.332031 C 725.5625 654.265625 726.242188 654.230469 726.921875 654.230469 C 727.601562 654.230469 728.28125 654.265625 728.957031 654.332031 C 729.636719 654.398438 730.308594 654.496094 730.976562 654.628906 C 731.640625 654.761719 732.300781 654.925781 732.953125 655.125 C 733.601562 655.324219 734.242188 655.550781 734.871094 655.8125 C 735.5 656.070312 736.113281 656.363281 736.714844 656.683594 C 737.3125 657.003906 737.894531 657.351562 738.460938 657.730469 C 739.027344 658.109375 739.574219 658.511719 740.097656 658.945312 C 740.625 659.375 741.128906 659.832031 741.609375 660.3125 C 742.089844 660.792969 742.546875 661.296875 742.976562 661.824219 C 743.410156 662.351562 743.8125 662.894531 744.191406 663.460938 C 744.570312 664.027344 744.917969 664.609375 745.238281 665.210938 C 745.5625 665.808594 745.851562 666.421875 746.113281 667.050781 C 746.371094 667.679688 746.601562 668.320312 746.796875 668.972656 C 746.996094 669.621094 747.160156 670.28125 747.292969 670.949219 C 747.425781 671.613281 747.527344 672.289062 747.59375 672.964844 C 747.660156 673.640625 747.691406 674.320312 747.691406 675 Z M 747.691406 675"/><path fill="#fbcd59" fill-opacity="1" fill-rule="nonzero" d="M 83.078125 540 C 83.078125 541.359375 83.011719 542.71875 82.875 544.070312 C 82.742188 545.425781 82.542969 546.769531 82.277344 548.105469 C 82.011719 549.4375 81.683594 550.757812 81.289062 552.058594 C 80.894531 553.359375 80.4375 554.640625 79.914062 555.894531 C 79.394531 557.152344 78.8125 558.382812 78.171875 559.582031 C 77.53125 560.78125 76.832031 561.945312 76.078125 563.078125 C 75.320312 564.207031 74.511719 565.300781 73.648438 566.351562 C 72.785156 567.402344 71.871094 568.410156 70.910156 569.371094 C 69.949219 570.335938 68.941406 571.246094 67.890625 572.109375 C 66.839844 572.972656 65.746094 573.78125 64.617188 574.539062 C 63.484375 575.292969 62.320312 575.992188 61.121094 576.632812 C 59.917969 577.273438 58.691406 577.855469 57.433594 578.375 C 56.175781 578.898438 54.898438 579.355469 53.597656 579.75 C 52.292969 580.144531 50.976562 580.476562 49.640625 580.742188 C 48.308594 581.003906 46.964844 581.207031 45.609375 581.339844 C 44.257812 581.472656 42.898438 581.539062 41.539062 581.539062 C 40.179688 581.539062 38.820312 581.472656 37.46875 581.339844 C 36.113281 581.207031 34.769531 581.003906 33.433594 580.742188 C 32.101562 580.476562 30.78125 580.144531 29.480469 579.75 C 28.179688 579.355469 26.898438 578.898438 25.640625 578.375 C 24.386719 577.855469 23.15625 577.273438 21.957031 576.632812 C 20.757812 575.992188 19.59375 575.292969 18.460938 574.539062 C 17.328125 573.78125 16.238281 572.972656 15.1875 572.109375 C 14.136719 571.246094 13.128906 570.335938 12.167969 569.371094 C 11.203125 568.410156 10.292969 567.402344 9.429688 566.351562 C 8.566406 565.300781 7.757812 564.207031 7 563.078125 C 6.246094 561.945312 5.546875 560.78125 4.90625 559.582031 C 4.261719 558.382812 3.683594 557.152344 3.160156 555.894531 C 2.640625 554.640625 2.183594 553.359375 1.789062 552.058594 C 1.394531 550.757812 1.0625 549.4375 0.796875 548.105469 C 0.53125 546.769531 0.332031 545.425781 0.199219 544.070312 C 0.0664062 542.71875 0 541.359375 0 540 C 0 538.640625 0.0664062 537.28125 0.199219 535.929688 C 0.332031 534.574219 0.53125 533.230469 0.796875 531.894531 C 1.0625 530.5625 1.394531 529.242188 1.789062 527.941406 C 2.183594 526.640625 2.640625 525.359375 3.160156 524.105469 C 3.683594 522.847656 4.261719 521.617188 4.90625 520.417969 C 5.546875 519.21875 6.246094 518.054688 7 516.921875 C 7.757812 515.792969 8.566406 514.699219 9.429688 513.648438 C 10.292969 512.597656 11.203125 511.589844 12.167969 510.628906 C 13.128906 509.664062 14.136719 508.753906 15.1875 507.890625 C 16.238281 507.027344 17.328125 506.21875 18.460938 505.460938 C 19.59375 504.707031 20.757812 504.007812 21.957031 503.367188 C 23.15625 502.726562 24.386719 502.144531 25.640625 501.625 C 26.898438 501.101562 28.179688 500.644531 29.480469 500.25 C 30.78125 499.855469 32.101562 499.523438 33.433594 499.257812 C 34.769531 498.996094 36.113281 498.796875 37.46875 498.660156 C 38.820312 498.527344 40.179688 498.460938 41.539062 498.460938 C 42.898438 498.460938 44.257812 498.527344 45.609375 498.660156 C 46.964844 498.796875 48.308594 498.996094 49.640625 499.257812 C 50.976562 499.523438 52.292969 499.855469 53.597656 500.25 C 54.898438 500.644531 56.175781 501.101562 57.433594 501.625 C 58.691406 502.144531 59.917969 502.726562 61.121094 503.367188 C 62.320312 504.007812 63.484375 504.707031 64.617188 505.460938 C 65.746094 506.21875 66.839844 507.027344 67.890625 507.890625 C 68.941406 508.753906 69.949219 509.664062 70.910156 510.628906 C 71.871094 511.589844 72.785156 512.597656 73.648438 513.648438 C 74.511719 514.699219 75.320312 515.792969 76.078125 516.921875 C 76.832031 518.054688 77.53125 519.21875 78.171875 520.417969 C 78.8125 521.617188 79.394531 522.847656 79.914062 524.105469 C 80.4375 525.359375 80.894531 526.640625 81.289062 527.941406 C 81.683594 529.242188 82.011719 530.5625 82.277344 531.894531 C 82.542969 533.230469 82.742188 534.574219 82.875 535.929688 C 83.011719 537.28125 83.078125 538.640625 83.078125 540 Z M 83.078125 540"/><path fill="#ee3e54" fill-opacity="1" fill-rule="nonzero" d="M 166.152344 789.230469 C 166.152344 789.910156 166.121094 790.589844 166.054688 791.265625 C 165.988281 791.945312 165.886719 792.617188 165.753906 793.28125 C 165.621094 793.949219 165.457031 794.609375 165.257812 795.261719 C 165.0625 795.910156 164.832031 796.550781 164.574219 797.179688 C 164.3125 797.808594 164.023438 798.421875 163.703125 799.019531 C 163.378906 799.621094 163.03125 800.203125 162.652344 800.769531 C 162.277344 801.335938 161.871094 801.878906 161.441406 802.40625 C 161.007812 802.933594 160.550781 803.4375 160.070312 803.917969 C 159.589844 804.398438 159.085938 804.855469 158.558594 805.285156 C 158.035156 805.71875 157.488281 806.121094 156.921875 806.5 C 156.359375 806.878906 155.773438 807.226562 155.175781 807.546875 C 154.574219 807.867188 153.960938 808.160156 153.332031 808.417969 C 152.703125 808.679688 152.066406 808.90625 151.414062 809.105469 C 150.761719 809.304688 150.105469 809.46875 149.4375 809.601562 C 148.769531 809.734375 148.097656 809.832031 147.421875 809.898438 C 146.742188 809.964844 146.066406 810 145.382812 810 C 144.703125 810 144.027344 809.964844 143.347656 809.898438 C 142.671875 809.832031 142 809.734375 141.332031 809.601562 C 140.664062 809.46875 140.007812 809.304688 139.355469 809.105469 C 138.703125 808.90625 138.066406 808.679688 137.4375 808.417969 C 136.808594 808.160156 136.195312 807.867188 135.59375 807.546875 C 134.996094 807.226562 134.410156 806.878906 133.847656 806.5 C 133.28125 806.121094 132.734375 805.71875 132.207031 805.285156 C 131.683594 804.855469 131.179688 804.398438 130.699219 803.917969 C 130.21875 803.4375 129.761719 802.933594 129.328125 802.40625 C 128.898438 801.878906 128.492188 801.335938 128.117188 800.769531 C 127.738281 800.203125 127.386719 799.621094 127.066406 799.019531 C 126.746094 798.421875 126.457031 797.808594 126.195312 797.179688 C 125.9375 796.550781 125.707031 795.910156 125.507812 795.261719 C 125.3125 794.609375 125.148438 793.949219 125.015625 793.28125 C 124.882812 792.617188 124.78125 791.945312 124.714844 791.265625 C 124.648438 790.589844 124.617188 789.910156 124.617188 789.230469 C 124.617188 788.550781 124.648438 787.871094 124.714844 787.195312 C 124.78125 786.519531 124.882812 785.847656 125.015625 785.179688 C 125.148438 784.511719 125.3125 783.851562 125.507812 783.203125 C 125.707031 782.550781 125.9375 781.910156 126.195312 781.28125 C 126.457031 780.652344 126.746094 780.039062 127.066406 779.441406 C 127.386719 778.839844 127.738281 778.257812 128.117188 777.691406 C 128.492188 777.125 128.898438 776.582031 129.328125 776.054688 C 129.761719 775.527344 130.21875 775.027344 130.699219 774.542969 C 131.179688 774.0625 131.683594 773.609375 132.207031 773.175781 C 132.734375 772.746094 133.28125 772.339844 133.847656 771.960938 C 134.410156 771.582031 134.996094 771.234375 135.59375 770.914062 C 136.195312 770.59375 136.808594 770.304688 137.4375 770.042969 C 138.066406 769.78125 138.703125 769.554688 139.355469 769.355469 C 140.007812 769.160156 140.664062 768.992188 141.332031 768.859375 C 142 768.726562 142.671875 768.628906 143.347656 768.5625 C 144.027344 768.496094 144.703125 768.460938 145.382812 768.460938 C 146.066406 768.460938 146.742188 768.496094 147.421875 768.5625 C 148.097656 768.628906 148.769531 768.726562 149.4375 768.859375 C 150.105469 768.992188 150.761719 769.160156 151.414062 769.355469 C 152.066406 769.554688 152.703125 769.78125 153.332031 770.042969 C 153.960938 770.304688 154.574219 770.59375 155.175781 770.914062 C 155.773438 771.234375 156.359375 771.582031 156.921875 771.960938 C 157.488281 772.339844 158.035156 772.746094 158.558594 773.175781 C 159.085938 773.609375 159.589844 774.0625 160.070312 774.542969 C 160.550781 775.027344 161.007812 775.527344 161.4375 776.054688 C 161.871094 776.582031 162.277344 777.125 162.652344 777.691406 C 163.03125 778.257812 163.378906 778.839844 163.703125 779.441406 C 164.023438 780.039062 164.3125 780.652344 164.574219 781.28125 C 164.832031 781.910156 165.0625 782.550781 165.257812 783.203125 C 165.457031 783.851562 165.621094 784.511719 165.753906 785.179688 C 165.886719 785.847656 165.988281 786.519531 166.054688 787.195312 C 166.121094 787.871094 166.152344 788.550781 166.152344 789.230469 Z M 166.152344 789.230469"/><path fill="#fff" fill-opacity="1" fill-rule="nonzero" d="M 103.847656 441.347656 C 103.847656 442.195312 103.804688 443.042969 103.722656 443.890625 C 103.636719 444.738281 103.511719 445.578125 103.347656 446.410156 C 103.179688 447.246094 102.976562 448.070312 102.726562 448.882812 C 102.480469 449.695312 102.195312 450.496094 101.871094 451.28125 C 101.542969 452.066406 101.179688 452.835938 100.78125 453.585938 C 100.378906 454.335938 99.941406 455.0625 99.472656 455.769531 C 99 456.476562 98.492188 457.160156 97.953125 457.816406 C 97.414062 458.472656 96.84375 459.101562 96.242188 459.703125 C 95.640625 460.304688 95.011719 460.875 94.355469 461.414062 C 93.695312 461.953125 93.015625 462.460938 92.308594 462.933594 C 91.601562 463.40625 90.871094 463.839844 90.121094 464.242188 C 89.371094 464.644531 88.605469 465.007812 87.820312 465.332031 C 87.035156 465.65625 86.234375 465.941406 85.421875 466.191406 C 84.605469 466.4375 83.785156 466.644531 82.949219 466.808594 C 82.117188 466.976562 81.277344 467.097656 80.429688 467.183594 C 79.582031 467.265625 78.734375 467.308594 77.882812 467.308594 C 77.035156 467.308594 76.1875 467.265625 75.339844 467.183594 C 74.492188 467.097656 73.652344 466.976562 72.820312 466.808594 C 71.984375 466.644531 71.160156 466.4375 70.347656 466.191406 C 69.535156 465.941406 68.734375 465.65625 67.949219 465.332031 C 67.164062 465.007812 66.394531 464.644531 65.644531 464.242188 C 64.898438 463.839844 64.167969 463.40625 63.460938 462.933594 C 62.753906 462.460938 62.070312 461.953125 61.414062 461.414062 C 60.757812 460.875 60.128906 460.304688 59.527344 459.703125 C 58.925781 459.101562 58.355469 458.472656 57.816406 457.816406 C 57.277344 457.160156 56.769531 456.476562 56.296875 455.769531 C 55.824219 455.0625 55.390625 454.335938 54.988281 453.585938 C 54.585938 452.835938 54.226562 452.066406 53.898438 451.28125 C 53.574219 450.496094 53.289062 449.695312 53.039062 448.882812 C 52.792969 448.070312 52.585938 447.246094 52.421875 446.410156 C 52.257812 445.578125 52.132812 444.738281 52.046875 443.890625 C 51.964844 443.042969 51.921875 442.195312 51.921875 441.347656 C 51.921875 440.496094 51.964844 439.648438 52.046875 438.800781 C 52.132812 437.957031 52.257812 437.117188 52.421875 436.28125 C 52.585938 435.449219 52.792969 434.625 53.039062 433.808594 C 53.289062 432.996094 53.574219 432.195312 53.898438 431.410156 C 54.226562 430.625 54.585938 429.859375 54.988281 429.109375 C 55.390625 428.359375 55.824219 427.628906 56.296875 426.921875 C 56.769531 426.214844 57.277344 425.535156 57.816406 424.875 C 58.355469 424.21875 58.925781 423.589844 59.527344 422.988281 C 60.128906 422.386719 60.757812 421.816406 61.414062 421.277344 C 62.070312 420.738281 62.753906 420.230469 63.460938 419.761719 C 64.167969 419.289062 64.898438 418.851562 65.644531 418.449219 C 66.394531 418.050781 67.164062 417.6875 67.949219 417.359375 C 68.734375 417.035156 69.535156 416.75 70.347656 416.503906 C 71.160156 416.253906 71.984375 416.050781 72.820312 415.882812 C 73.652344 415.71875 74.492188 415.59375 75.339844 415.507812 C 76.1875 415.425781 77.035156 415.382812 77.882812 415.382812 C 78.734375 415.382812 79.582031 415.425781 80.429688 415.507812 C 81.277344 415.59375 82.117188 415.71875 82.949219 415.882812 C 83.785156 416.050781 84.605469 416.253906 85.421875 416.503906 C 86.234375 416.75 87.035156 417.035156 87.820312 417.359375 C 88.605469 417.6875 89.371094 418.050781 90.121094 418.449219 C 90.871094 418.851562 91.601562 419.289062 92.308594 419.761719 C 93.015625 420.230469 93.695312 420.738281 94.355469 421.277344 C 95.011719 421.816406 95.640625 422.386719 96.242188 422.988281 C 96.84375 423.589844 97.414062 424.21875 97.953125 424.875 C 98.492188 425.535156 99 426.214844 99.472656 426.921875 C 99.941406 427.628906 100.378906 428.359375 100.78125 429.109375 C 101.179688 429.859375 101.542969 430.625 101.871094 431.410156 C 102.195312 432.195312 102.480469 432.996094 102.726562 433.808594 C 102.976562 434.625 103.179688 435.449219 103.347656 436.28125 C 103.511719 437.117188 103.636719 437.957031 103.722656 438.800781 C 103.804688 439.648438 103.847656 440.496094 103.847656 441.347656 Z M 103.847656 441.347656"/><path fill="#f1bc19" fill-opacity="1" fill-rule="nonzero" d="M 114.230469 581.539062 C 114.230469 582.21875 114.164062 582.894531 114.03125 583.5625 C 113.898438 584.234375 113.703125 584.882812 113.441406 585.511719 C 113.179688 586.140625 112.859375 586.742188 112.480469 587.308594 C 112.101562 587.875 111.671875 588.398438 111.1875 588.882812 C 110.707031 589.363281 110.183594 589.792969 109.617188 590.171875 C 109.046875 590.550781 108.449219 590.871094 107.820312 591.132812 C 107.191406 591.394531 106.539062 591.589844 105.871094 591.722656 C 105.203125 591.855469 104.527344 591.921875 103.847656 591.921875 C 103.164062 591.921875 102.488281 591.855469 101.820312 591.722656 C 101.152344 591.589844 100.503906 591.394531 99.871094 591.132812 C 99.242188 590.871094 98.644531 590.550781 98.078125 590.171875 C 97.511719 589.792969 96.984375 589.363281 96.503906 588.882812 C 96.019531 588.398438 95.589844 587.875 95.210938 587.308594 C 94.832031 586.742188 94.511719 586.140625 94.253906 585.511719 C 93.992188 584.882812 93.792969 584.234375 93.660156 583.5625 C 93.527344 582.894531 93.460938 582.21875 93.460938 581.539062 C 93.460938 580.855469 93.527344 580.179688 93.660156 579.511719 C 93.792969 578.84375 93.992188 578.195312 94.253906 577.5625 C 94.511719 576.933594 94.832031 576.335938 95.210938 575.769531 C 95.589844 575.203125 96.019531 574.675781 96.503906 574.195312 C 96.984375 573.714844 97.511719 573.28125 98.078125 572.902344 C 98.644531 572.523438 99.242188 572.207031 99.871094 571.945312 C 100.503906 571.683594 101.152344 571.488281 101.820312 571.351562 C 102.488281 571.21875 103.164062 571.152344 103.847656 571.152344 C 104.527344 571.152344 105.203125 571.21875 105.871094 571.351562 C 106.539062 571.488281 107.191406 571.683594 107.820312 571.945312 C 108.449219 572.207031 109.046875 572.523438 109.617188 572.902344 C 110.183594 573.28125 110.707031 573.714844 111.1875 574.195312 C 111.671875 574.675781 112.101562 575.203125 112.480469 575.769531 C 112.859375 576.335938 113.179688 576.933594 113.441406 577.5625 C 113.703125 578.195312 113.898438 578.84375 114.03125 579.511719 C 114.164062 580.179688 114.230469 580.855469 114.230469 581.539062 Z M 114.230469 581.539062"/><path fill="#fff" fill-opacity="1" fill-rule="nonzero" d="M 726.921875 238.847656 C 726.921875 239.527344 726.855469 240.203125 726.722656 240.871094 C 726.589844 241.539062 726.394531 242.191406 726.132812 242.820312 C 725.871094 243.449219 725.550781 244.046875 725.171875 244.617188 C 724.792969 245.183594 724.363281 245.707031 723.882812 246.1875 C 723.398438 246.671875 722.875 247.101562 722.308594 247.480469 C 721.742188 247.859375 721.140625 248.179688 720.511719 248.441406 C 719.882812 248.703125 719.234375 248.898438 718.5625 249.03125 C 717.894531 249.164062 717.21875 249.230469 716.539062 249.230469 C 715.855469 249.230469 715.179688 249.164062 714.511719 249.03125 C 713.84375 248.898438 713.195312 248.703125 712.5625 248.441406 C 711.933594 248.179688 711.335938 247.859375 710.769531 247.480469 C 710.203125 247.101562 709.675781 246.671875 709.195312 246.1875 C 708.714844 245.707031 708.28125 245.183594 707.902344 244.617188 C 707.523438 244.046875 707.207031 243.449219 706.945312 242.820312 C 706.683594 242.191406 706.484375 241.539062 706.351562 240.871094 C 706.21875 240.203125 706.152344 239.527344 706.152344 238.847656 C 706.152344 238.164062 706.21875 237.488281 706.351562 236.820312 C 706.484375 236.152344 706.683594 235.503906 706.945312 234.871094 C 707.207031 234.242188 707.523438 233.644531 707.902344 233.078125 C 708.28125 232.511719 708.714844 231.984375 709.195312 231.503906 C 709.675781 231.019531 710.203125 230.589844 710.769531 230.210938 C 711.335938 229.832031 711.933594 229.511719 712.5625 229.253906 C 713.195312 228.992188 713.84375 228.792969 714.511719 228.660156 C 715.179688 228.527344 715.855469 228.460938 716.539062 228.460938 C 717.21875 228.460938 717.894531 228.527344 718.5625 228.660156 C 719.234375 228.792969 719.882812 228.992188 720.511719 229.253906 C 721.140625 229.511719 721.742188 229.832031 722.308594 230.210938 C 722.875 230.589844 723.398438 231.019531 723.882812 231.503906 C 724.363281 231.984375 724.792969 232.511719 725.171875 233.078125 C 725.550781 233.644531 725.871094 234.242188 726.132812 234.871094 C 726.394531 235.503906 726.589844 236.152344 726.722656 236.820312 C 726.855469 237.488281 726.921875 238.164062 726.921875 238.847656 Z M 726.921875 238.847656"/><path fill="#fabf82" fill-opacity="1" fill-rule="nonzero" d="M 603.5625 618.15625 C 599.359375 595.871094 590.273438 582.816406 568.859375 576.347656 C 567.925781 576.066406 566.679688 575.609375 565.277344 575.070312 C 563.65625 574.363281 561.601562 573.53125 559.191406 572.597656 C 546.21875 567.113281 469.125 538.671875 469.125 538.671875 C 462.769531 537.0625 458.636719 532.535156 456.25 527.433594 C 452.300781 519.011719 453.828125 497.175781 453.828125 497.175781 C 453.828125 497.175781 421.59375 508.203125 401.480469 511.960938 C 381.75 513.882812 339.347656 488.367188 339.347656 488.367188 C 339.347656 488.367188 338.351562 519.90625 337.011719 526.914062 C 335.953125 532.417969 330.035156 537.070312 323.679688 538.679688 L 249.699219 565.503906 C 241.515625 567.644531 233.664062 570.695312 226.757812 574.964844 C 208.140625 586.460938 198.710938 603.71875 193.910156 618.164062 C 193.910156 618.164062 189.042969 652.601562 189.238281 653.835938 C 188.78125 658.65625 188.304688 663.960938 187.816406 669.539062 C 268.441406 724.128906 333.199219 739.425781 444.304688 734.566406 C 494.785156 732.355469 569.949219 707.429688 609.328125 687.554688 C 607.242188 643.679688 603.5625 618.15625 603.5625 618.15625 Z M 603.5625 618.15625"/><path fill="#88cdd7" fill-opacity="1" fill-rule="nonzero" d="M 568.859375 576.773438 C 567.925781 576.492188 566.679688 576.035156 565.277344 575.496094 C 563.65625 574.789062 561.601562 573.957031 559.191406 573.023438 C 551.164062 569.628906 518.640625 557.46875 494.972656 548.671875 L 493.859375 548.378906 C 467.734375 561.777344 430.554688 581.882812 396.410156 581.882812 C 362.265625 581.882812 328.03125 563.707031 298.960938 548.378906 L 295.703125 549.242188 L 249.6875 565.929688 C 241.503906 568.070312 233.652344 571.121094 226.75 575.390625 C 208.128906 586.886719 198.699219 604.144531 193.902344 618.589844 C 193.902344 618.589844 189.03125 653.027344 189.230469 654.261719 C 188.773438 659.082031 188.292969 710.796875 187.804688 716.371094 C 268.433594 770.964844 333.191406 786.261719 444.296875 781.402344 C 494.773438 779.1875 569.9375 754.265625 609.316406 734.390625 C 607.230469 690.523438 603.5625 618.589844 603.5625 618.589844 C 599.359375 596.296875 590.273438 583.242188 568.859375 576.773438 Z M 568.859375 576.773438"/><path fill="#be7841" fill-opacity="1" fill-rule="nonzero" d="M 285.949219 367.160156 C 284.308594 363.554688 246.105469 278.277344 275.128906 220.277344 C 287.15625 196.257812 308.953125 180.535156 339.941406 173.527344 C 357.78125 161.230469 379.183594 154.472656 400.335938 154.472656 C 418.085938 154.472656 435.324219 159.0625 451.574219 168.128906 C 460.195312 172.933594 467.164062 176.996094 473.007812 180.390625 C 491.515625 191.160156 497.753906 194.785156 508.761719 194.785156 C 509.976562 194.785156 511.253906 194.742188 512.605469 194.660156 L 513.945312 194.578125 C 515.511719 194.472656 517.058594 194.378906 518.515625 194.378906 C 528.121094 194.378906 530.808594 199.488281 531.378906 203.777344 C 532.824219 214.617188 529.011719 223.976562 525.660156 232.222656 C 522.625 239.65625 520.019531 246.0625 521.785156 251.878906 C 540.871094 314.570312 511.285156 365.539062 510.019531 367.679688 L 500.238281 384.148438 L 500.363281 364.988281 C 500.363281 364.480469 500.527344 315.929688 489 284.882812 C 474.253906 293.117188 456.351562 297.4375 436.808594 297.4375 C 403.089844 297.4375 365.808594 285.128906 328.777344 261.816406 C 295.859375 287.683594 295.878906 364.210938 295.878906 365 L 296.011719 389.246094 Z M 285.949219 367.160156"/><path fill="#472b29" fill-opacity="1" fill-rule="nonzero" d="M 400.335938 159.664062 C 416.039062 159.664062 432.625 163.503906 449.042969 172.65625 C 485.742188 193.121094 492.550781 199.964844 508.753906 199.964844 C 510.070312 199.964844 511.441406 199.925781 512.90625 199.832031 C 514.816406 199.71875 516.738281 199.5625 518.503906 199.5625 C 522.492188 199.5625 525.691406 200.382812 526.230469 204.441406 C 528.773438 223.570312 512.253906 238.359375 516.820312 253.363281 C 535.460938 314.582031 505.554688 365 505.554688 365 C 505.554688 365 505.917969 309.109375 491.492188 277.257812 C 476.613281 287.082031 457.941406 292.210938 436.796875 292.210938 C 404.84375 292.210938 367.242188 280.476562 328.589844 255.511719 C 290.230469 281.039062 290.6875 365 290.6875 365 C 290.6875 365 218.035156 205.492188 342.078125 178.375 C 357.832031 167.277344 378.21875 159.664062 400.335938 159.664062 M 400.335938 149.277344 C 378.46875 149.277344 356.359375 156.164062 337.820312 168.699219 C 305.765625 176.175781 283.117188 192.738281 270.488281 217.960938 C 240.363281 278.152344 279.542969 365.621094 281.226562 369.320312 L 301.269531 413.328125 L 301.058594 364.96875 C 300.96875 344.5625 306.035156 290.175781 329.273438 268.234375 C 366.058594 290.757812 403.101562 302.628906 436.796875 302.628906 C 454.878906 302.628906 471.636719 299.066406 486.019531 292.242188 C 495.324219 322.296875 495.167969 364.480469 495.167969 364.957031 L 494.921875 403.296875 L 514.484375 370.316406 C 515.804688 368.09375 546.5 315.214844 526.75 250.351562 C 525.511719 246.3125 527.808594 240.683594 530.457031 234.171875 C 533.882812 225.761719 538.140625 215.292969 536.511719 203.082031 C 536.074219 199.820312 533.5 189.175781 518.492188 189.175781 C 516.9375 189.175781 515.285156 189.28125 513.601562 189.382812 L 512.285156 189.46875 C 511.039062 189.539062 509.863281 189.582031 508.742188 189.582031 C 499.488281 189.582031 494.640625 186.964844 475.605469 175.894531 C 469.75 172.488281 462.738281 168.417969 454.089844 163.589844 C 437.066406 154.097656 418.988281 149.277344 400.335938 149.277344 Z M 400.335938 149.277344"/><path fill="#00a5a5" fill-opacity="1" fill-rule="nonzero" d="M 258.609375 760.289062 C 256.882812 760.289062 255.492188 758.898438 255.492188 757.171875 L 255.492188 716.152344 C 255.492188 714.429688 256.882812 713.039062 258.609375 713.039062 C 260.332031 713.039062 261.722656 714.429688 261.722656 716.152344 L 261.722656 757.171875 C 261.722656 758.898438 260.332031 760.289062 258.609375 760.289062 Z M 258.609375 760.289062"/><path fill="#00a5a5" fill-opacity="1" fill-rule="nonzero" d="M 532.015625 767.507812 C 530.289062 767.507812 528.898438 766.113281 528.898438 764.390625 L 528.898438 716.152344 C 528.898438 714.429688 530.289062 713.039062 532.015625 713.039062 C 533.738281 713.039062 535.128906 714.429688 535.128906 716.152344 L 535.128906 764.390625 C 535.128906 766.113281 533.738281 767.507812 532.015625 767.507812 Z M 532.015625 767.507812"/><path fill="#fddbbc" fill-opacity="1" fill-rule="nonzero" d="M 523.570312 342.691406 C 522.355469 342.609375 521.121094 342.597656 519.832031 342.597656 C 509.8125 342.109375 510.664062 345.890625 511.121094 339.691406 C 511.929688 328.683594 506.6875 284.238281 506.6875 281.984375 C 506.6875 235.710938 458.367188 197.960938 398 195.875 L 398 195.738281 C 397.597656 195.75 397.203125 195.800781 396.785156 195.8125 C 396.378906 195.800781 395.984375 195.75 395.570312 195.738281 L 395.570312 195.875 C 335.195312 197.972656 286.886719 235.710938 286.886719 281.984375 C 286.886719 284.238281 285.347656 328.890625 286.160156 339.910156 C 286.617188 346.109375 283.757812 342.109375 273.738281 342.597656 C 272.449219 342.597656 271.214844 342.609375 270 342.691406 C 259.011719 343.429688 250.125 350.417969 248.222656 359.078125 C 249.574219 359.898438 254.570312 397.824219 262.667969 412.769531 C 267.195312 421.105469 274.257812 422.269531 281.515625 427.660156 C 285.535156 430.640625 286.3125 434.015625 287.414062 438.46875 C 291.484375 454.980469 302.792969 469.019531 315.183594 481.003906 C 321.300781 486.925781 361.902344 530.207031 396.785156 528.015625 C 431.832031 526.699219 472.273438 486.925781 478.386719 481.003906 C 490.777344 469.019531 502.085938 454.980469 506.15625 438.46875 C 507.257812 434.003906 508.027344 430.640625 512.054688 427.660156 C 519.3125 422.269531 526.375 421.117188 530.902344 412.769531 C 539.003906 397.824219 544.007812 359.898438 545.347656 359.078125 C 543.449219 350.417969 534.558594 343.417969 523.570312 342.691406 Z M 523.570312 342.691406"/><path fill="#512c2b" fill-opacity="1" fill-rule="nonzero" d="M 397.410156 415.996094 C 404.5 415.996094 411.375 412.902344 415.800781 407.722656 C 416.246094 407.203125 416.183594 406.414062 415.664062 405.964844 C 415.144531 405.519531 414.367188 405.570312 413.910156 406.089844 C 410.304688 410.214844 404.285156 412.582031 397.410156 412.582031 C 390.523438 412.582031 384.511719 410.214844 380.90625 406.089844 C 380.660156 405.808594 380.316406 405.664062 379.960938 405.664062 C 379.671875 405.664062 379.382812 405.769531 379.152344 405.964844 C 378.632812 406.414062 378.570312 407.203125 379.019531 407.722656 C 383.441406 412.902344 390.316406 415.996094 397.410156 415.996094 Z M 397.410156 415.996094"/><path fill="#512c2b" fill-opacity="1" fill-rule="nonzero" d="M 374.792969 320.1875 L 379.289062 311.550781 C 360.261719 307.09375 338.363281 307.800781 320.28125 313.40625 L 325.953125 321.828125 C 340.8125 316.929688 359.089844 316.304688 374.792969 320.1875 Z M 374.792969 320.1875"/><path fill="#512c2b" fill-opacity="1" fill-rule="nonzero" d="M 470.027344 320.1875 L 474.523438 311.550781 C 455.5 307.09375 433.597656 307.800781 415.519531 313.40625 L 421.191406 321.828125 C 436.058594 316.929688 454.335938 316.304688 470.027344 320.1875 Z M 470.027344 320.1875"/><path fill="#512c2b" fill-opacity="1" fill-rule="nonzero" d="M 347.40625 332.378906 C 342.835938 332.378906 338.828125 335.402344 336.511719 339.972656 C 337.09375 339.796875 337.6875 339.671875 338.320312 339.671875 C 342.070312 339.671875 345.101562 343.066406 345.101562 347.242188 C 345.101562 351.425781 342.058594 354.8125 338.320312 354.8125 C 337.09375 354.8125 335.964844 354.417969 334.964844 353.78125 C 336.566406 360.648438 341.527344 365.640625 347.417969 365.640625 C 354.59375 365.640625 360.417969 358.195312 360.417969 349.007812 C 360.410156 339.835938 354.582031 332.378906 347.40625 332.378906 Z M 347.40625 332.378906"/><path fill="#512c2b" fill-opacity="1" fill-rule="nonzero" d="M 446.859375 332.378906 C 442.957031 332.378906 439.464844 334.59375 437.089844 338.070312 C 437.835938 337.757812 438.636719 337.5625 439.476562 337.5625 C 443.226562 337.5625 446.257812 340.957031 446.257812 345.132812 C 446.257812 349.316406 443.214844 352.703125 439.476562 352.703125 C 437.152344 352.703125 435.105469 351.394531 433.878906 349.402344 C 434.046875 358.402344 439.789062 365.632812 446.859375 365.632812 C 454.035156 365.632812 459.863281 358.1875 459.863281 348.996094 C 459.851562 339.835938 454.035156 332.378906 446.859375 332.378906 Z M 446.859375 332.378906"/><path fill="#512c2b" fill-opacity="1" fill-rule="nonzero" d="M 452.375 435.269531 C 452.902344 434.835938 452.988281 434.054688 452.5625 433.527344 C 452.136719 432.996094 451.347656 432.902344 450.804688 433.339844 C 439.09375 442.675781 419.632812 448.035156 397.417969 448.035156 C 375.207031 448.035156 355.746094 442.675781 344.023438 433.328125 C 343.792969 433.140625 343.523438 433.058594 343.242188 433.058594 C 342.878906 433.058594 342.515625 433.214844 342.265625 433.527344 C 341.839844 434.054688 341.914062 434.84375 342.441406 435.28125 C 355.671875 446.09375 376.222656 452.550781 397.410156 452.550781 C 418.59375 452.539062 439.132812 446.09375 452.375 435.269531 Z M 452.375 435.269531"/><path fill="#512c2b" fill-opacity="1" fill-rule="nonzero" d="M 411.917969 490 C 412.558594 490 413.101562 489.25 413.101562 488.367188 C 413.101562 487.484375 412.558594 486.738281 411.917969 486.738281 L 385.21875 486.738281 C 384.574219 486.738281 384.035156 487.484375 384.035156 488.367188 C 384.035156 489.25 384.574219 490 385.21875 490 Z M 411.917969 490"/><path fill="#472b29" fill-opacity="1" fill-rule="nonzero" d="M 408.332031 788.835938 C 315.847656 788.835938 256.167969 770.339844 184.886719 722.082031 C 183.328125 721.023438 182.46875 719.21875 182.625 717.339844 C 182.71875 716.214844 182.769531 712.40625 182.84375 706.890625 C 183.183594 684.230469 183.878906 637.097656 188.886719 618.652344 C 195.675781 593.554688 205.625 583.738281 224.007812 572.390625 C 230.882812 568.140625 239.074219 564.765625 248.359375 562.328125 L 321.882812 535.648438 C 327.105469 534.296875 331.289062 530.902344 331.882812 527.789062 C 332.183594 526.25 332.765625 521.453125 333.472656 506.625 C 322.773438 499.054688 314.0625 492.242188 311.539062 489.769531 C 295.328125 473.921875 286.054688 459.46875 282.347656 444.273438 C 281.214844 439.632812 280.726562 438.023438 278.378906 436.269531 C 276.230469 434.648438 274.082031 433.453125 272.046875 432.300781 C 267.03125 429.476562 261.847656 426.539062 258.078125 419.507812 C 249.375 403.265625 243.011719 372.558594 243.011719 362.765625 C 243.011719 362.390625 243.050781 362.027344 243.125 361.664062 C 245.566406 350.398438 256.46875 341.902344 269.625 341.019531 C 270.945312 340.9375 272.316406 340.894531 273.726562 340.917969 C 276.542969 340.78125 278.929688 340.980469 280.820312 341.238281 C 280.445312 328.714844 281.195312 302.203125 281.527344 290.21875 C 281.609375 287.21875 281.671875 285.246094 281.671875 284.808594 C 281.671875 235.597656 331.03125 195.25 394.242188 192.582031 C 394.707031 192.449219 395.144531 192.375 395.683594 192.394531 L 396.765625 197.589844 L 396.972656 192.449219 C 397.398438 192.457031 397.78125 192.46875 398.21875 192.542969 C 461.949219 194.792969 511.859375 235.316406 511.859375 284.808594 C 511.890625 285.503906 512.230469 288.515625 512.6875 292.742188 C 514.722656 311.425781 516.851562 332.039062 516.269531 340.074219 L 516.21875 340.730469 C 516.988281 340.769531 517.851562 340.8125 518.703125 340.855469 L 520.0625 340.917969 C 521.203125 340.917969 522.5625 340.917969 523.914062 341.019531 C 537.0625 341.902344 547.953125 350.398438 550.394531 361.664062 C 550.46875 362.027344 550.507812 362.390625 550.507812 362.753906 C 550.507812 374.0625 543.757812 403.980469 535.453125 419.496094 C 531.683594 426.527344 526.5 429.457031 521.484375 432.289062 C 519.4375 433.445312 517.300781 434.636719 515.140625 436.257812 C 512.792969 438.023438 512.304688 439.644531 511.234375 444.054688 C 507.484375 459.445312 498.210938 473.914062 482.003906 489.757812 C 479.375 492.335938 470.019531 499.957031 458.71875 508.121094 C 458.699219 517.027344 459.5 524.007812 460.933594 527.070312 C 462.394531 530.1875 465.21875 534.175781 470.390625 535.492188 C 474.058594 536.8125 548.265625 564.195312 561.207031 569.667969 C 563.542969 570.574219 565.648438 571.433594 567.320312 572.152344 C 568.390625 572.554688 569.511719 572.972656 570.355469 573.21875 C 592.410156 579.886719 603.867188 593.585938 608.664062 619.039062 C 608.703125 619.265625 608.734375 619.503906 608.746094 619.734375 C 608.746094 619.734375 612.421875 691.667969 614.5 735.542969 C 614.59375 737.589844 613.480469 739.5 611.652344 740.421875 C 569.667969 761.617188 493.832031 785.835938 444.523438 787.984375 C 431.894531 788.546875 419.859375 788.835938 408.332031 788.835938 Z M 193.101562 715.085938 C 270.050781 766.632812 333.78125 782.429688 444.066406 777.609375 C 490.851562 775.566406 562.421875 752.988281 603.96875 732.644531 C 601.953125 690.429688 598.671875 625.953125 598.394531 620.605469 C 594.28125 599.171875 585.558594 588.652344 567.351562 583.148438 C 566.335938 582.847656 564.953125 582.347656 563.398438 581.757812 C 561.632812 581 559.636719 580.1875 557.300781 579.273438 C 544.445312 573.84375 468.085938 545.671875 467.316406 545.378906 C 460.722656 543.726562 454.941406 538.734375 451.535156 531.472656 C 449.1875 526.46875 448.117188 517.664062 448.367188 505.316406 C 448.398438 503.675781 449.207031 502.136719 450.546875 501.191406 C 463.183594 492.1875 472.6875 484.347656 474.742188 482.335938 C 489.5 467.898438 497.878906 455.023438 501.097656 441.804688 C 502.28125 436.902344 503.46875 432.042969 508.917969 427.949219 C 511.464844 426.039062 513.976562 424.605469 516.386719 423.246094 C 520.777344 420.765625 523.957031 418.96875 526.304688 414.59375 C 534.132812 399.996094 539.894531 372.828125 540.136719 363.335938 C 538.441406 356.917969 531.433594 351.925781 523.207031 351.375 C 522.105469 351.289062 521.007812 351.3125 519.84375 351.289062 L 518.222656 351.21875 C 512.5 350.949219 509.625 350.8125 507.402344 348.277344 C 505.367188 345.953125 505.597656 343.253906 505.8125 340.644531 L 505.929688 339.316406 C 506.488281 331.539062 503.714844 306.097656 502.375 293.863281 C 501.835938 288.890625 501.484375 285.429688 501.484375 284.796875 C 501.484375 240.914062 455.9375 204.941406 397.804688 202.90625 C 397.542969 202.90625 397.285156 202.875 397.023438 202.820312 C 396.808594 202.820312 396.628906 202.84375 396.640625 202.832031 L 396.628906 202.789062 C 396.339844 202.851562 396.039062 202.894531 395.738281 202.90625 C 337.59375 204.941406 292.058594 240.914062 292.058594 284.796875 C 292.058594 285.246094 292.003906 287.34375 291.910156 290.5 C 291.578125 302.472656 290.6875 334.269531 291.320312 343.003906 C 291.445312 344.644531 291.695312 348.0625 289.148438 350.398438 C 286.699219 352.640625 283.675781 352.171875 281.234375 351.789062 C 279.398438 351.5 277.125 351.136719 273.976562 351.289062 C 272.554688 351.289062 271.445312 351.300781 270.363281 351.375 C 262.128906 351.933594 255.109375 356.917969 253.414062 363.335938 C 253.664062 372.746094 259.824219 400.761719 267.25 414.59375 C 269.59375 418.976562 272.773438 420.773438 277.164062 423.246094 C 279.574219 424.605469 282.085938 426.050781 284.632812 427.949219 C 290.074219 432.03125 291.257812 436.878906 292.398438 441.574219 C 295.671875 455.023438 304.050781 467.910156 318.808594 482.34375 C 320.855469 484.347656 329.980469 491.515625 341.769531 499.75 C 343.234375 500.765625 344.0625 502.460938 343.980469 504.246094 C 343.378906 517.757812 342.734375 526.332031 342.089844 529.738281 C 340.492188 538.058594 332.328125 543.6875 324.933594 545.554688 L 251.453125 572.222656 C 242.710938 574.539062 235.460938 577.519531 229.46875 581.214844 C 212.800781 591.507812 204.867188 599.359375 198.90625 621.363281 C 194.253906 638.550781 193.539062 686.539062 193.238281 707.035156 C 193.195312 710.359375 193.152344 713.101562 193.101562 715.085938 Z M 193.101562 715.085938"/><path fill="#895d3d" fill-opacity="1" fill-rule="nonzero" d="M 524.214844 393.378906 L 518.015625 392.683594 L 520.101562 374.210938 L 509.605469 378.757812 L 507.132812 373.035156 L 522.5625 366.347656 C 523.582031 365.914062 524.753906 366.046875 525.648438 366.703125 C 526.542969 367.355469 527.019531 368.445312 526.894531 369.558594 Z M 524.214844 393.378906"/><path fill="#895d3d" fill-opacity="1" fill-rule="nonzero" d="M 272.722656 389.828125 L 270.042969 366.003906 C 269.917969 364.90625 270.394531 363.816406 271.289062 363.148438 C 272.171875 362.496094 273.363281 362.351562 274.371094 362.796875 L 289.804688 369.484375 L 287.332031 375.207031 L 276.832031 370.65625 L 278.921875 389.132812 Z M 272.722656 389.828125"/><path fill="#472b29" fill-opacity="1" fill-rule="nonzero" d="M 286.636719 435.945312 C 286.625 435.945312 286.617188 435.945312 286.59375 435.945312 C 285.453125 435.925781 284.539062 434.96875 284.558594 433.828125 L 286.273438 344.03125 C 286.292969 342.898438 287.21875 341.996094 288.351562 341.996094 C 288.359375 341.996094 288.371094 341.996094 288.390625 341.996094 C 289.535156 342.015625 290.449219 342.972656 290.425781 344.113281 L 288.714844 433.910156 C 288.683594 435.042969 287.757812 435.945312 286.636719 435.945312 Z M 286.636719 435.945312"/><path fill="#472b29" fill-opacity="1" fill-rule="nonzero" d="M 508.648438 435.945312 C 507.515625 435.945312 506.59375 435.042969 506.570312 433.910156 L 504.867188 344.113281 C 504.847656 342.972656 505.761719 342.015625 506.902344 341.996094 C 506.914062 341.996094 506.933594 341.996094 506.945312 341.996094 C 508.078125 341.996094 509 342.898438 509.023438 344.03125 L 510.726562 433.828125 C 510.746094 434.96875 509.832031 435.925781 508.691406 435.945312 C 508.667969 435.945312 508.660156 435.945312 508.648438 435.945312 Z M 508.648438 435.945312"/><path fill="#472b29" fill-opacity="1" fill-rule="nonzero" d="M 397.949219 530.589844 C 375.902344 530.589844 338.777344 503.46875 337.148438 502.261719 C 335.996094 501.410156 335.746094 499.789062 336.597656 498.636719 C 337.457031 497.476562 339.089844 497.234375 340.222656 498.085938 C 340.625 498.378906 380.597656 527.507812 400.035156 525.285156 C 419.921875 523.03125 451.773438 500.589844 452.09375 500.363281 C 453.257812 499.542969 454.878906 499.800781 455.71875 500.984375 C 456.550781 502.160156 456.269531 503.777344 455.09375 504.609375 C 453.746094 505.566406 421.84375 528.035156 400.628906 530.457031 C 399.753906 530.550781 398.863281 530.589844 397.949219 530.589844 Z M 397.949219 530.589844"/><path fill="#be7841" fill-opacity="1" fill-rule="nonzero" d="M 526.21875 205.097656 C 525.441406 199.230469 519.128906 200.113281 512.894531 200.484375 C 493.457031 201.636719 488.710938 195.4375 449.03125 173.308594 C 409.484375 151.25 369.027344 160.046875 342.058594 179.03125 C 218.015625 206.144531 290.664062 365.652344 290.664062 365.652344 C 290.664062 365.652344 290.207031 281.691406 328.570312 256.167969 C 392.808594 297.664062 454.097656 302.585938 491.472656 277.914062 C 505.898438 309.761719 505.535156 365.652344 505.535156 365.652344 C 505.535156 365.652344 535.441406 315.234375 516.800781 254.019531 C 512.242188 239.011719 528.765625 224.214844 526.21875 205.097656 Z M 526.21875 205.097656"/><path fill="#472b29" fill-opacity="1" fill-rule="nonzero" d="M 510.144531 365.214844 L 504.953125 365.183594 C 504.953125 364.644531 505.128906 312.597656 492.066406 281.257812 C 451.304688 305.660156 388.738281 297.207031 327.488281 258.816406 C 291.445312 284.351562 291.445312 364.363281 291.453125 365.183594 L 286.261719 365.214844 C 286.242188 361.726562 286.25 279.542969 326.015625 253.539062 C 326.867188 252.988281 327.96875 252.980469 328.828125 253.53125 C 390.109375 292.421875 452.570312 300.75 491.824219 275.285156 C 492.46875 274.878906 493.25 274.765625 493.964844 274.972656 C 494.691406 275.191406 495.285156 275.703125 495.605469 276.386719 C 510.339844 308.390625 510.15625 362.921875 510.144531 365.214844 Z M 510.144531 365.214844"/></svg>