<svg width="1728" height="235" viewBox="0 0 1728 235" fill="none" xmlns="http://www.w3.org/2000/svg">
<path d="M-54 42.9999L5.93333 32.2999C65.8667 21.9999 185.733 -8.76784e-05 305.6 0.299912C425.467 -8.76784e-05 545.333 21.9999 665.2 48.2999C785.067 74.9999 904.933 107 1024.8 90.9999C1144.67 74.9999 1264.53 10.9999 1384.4 5.69991C1504.27 -9.34601e-05 1624.13 53.9999 1684.07 80.2999L1744 107V235H1684.07C1624.13 235 1504.27 235 1384.4 235C1264.53 235 1144.67 235 1024.8 235C904.933 235 785.067 235 665.2 235C545.333 235 425.467 235 305.6 235C185.733 235 65.8667 235 5.93333 235H-54V42.9999Z" fill="#F5F7FE"/>
</svg>
